<mxfile host="app.diagrams.net" agent="Mozilla/5.0 (Windows NT 10.0; Win64; x64) AppleWebKit/537.36 (KHTML, like Gecko) Chrome/136.0.0.0 Safari/537.36 Edg/136.0.0.0" version="27.0.5">
  <diagram name="Page-1" id="UMYlq04poJJat0Zf0MXF">
    <mxGraphModel dx="1686" dy="1089" grid="1" gridSize="10" guides="1" tooltips="1" connect="1" arrows="1" fold="1" page="0" pageScale="1" pageWidth="827" pageHeight="1169" math="0" shadow="0">
      <root>
        <mxCell id="0" />
        <mxCell id="1" parent="0" />
        <mxCell id="HFbY0SZ3hscJM7pOWYyX-1" value="" style="rounded=0;whiteSpace=wrap;html=1;fillColor=#A8DADC;strokeColor=#457B9D;shadow=0;labelBackgroundColor=none;fontColor=#1D3557;" parent="1" vertex="1">
          <mxGeometry x="80" y="160" width="120" height="40" as="geometry" />
        </mxCell>
        <mxCell id="HFbY0SZ3hscJM7pOWYyX-7" value="&lt;h1&gt;&lt;font style=&quot;font-size: 12px;&quot;&gt;id&lt;/font&gt;&lt;/h1&gt;" style="ellipse;whiteSpace=wrap;html=1;fillColor=#A8DADC;strokeColor=#457B9D;shadow=0;labelBackgroundColor=none;fontColor=#1D3557;" parent="1" vertex="1">
          <mxGeometry x="-30" y="110" width="70" height="30" as="geometry" />
        </mxCell>
        <mxCell id="HFbY0SZ3hscJM7pOWYyX-8" value="name" style="ellipse;whiteSpace=wrap;html=1;fillColor=#A8DADC;strokeColor=#457B9D;shadow=0;labelBackgroundColor=none;fontColor=#1D3557;" parent="1" vertex="1">
          <mxGeometry x="207" y="100" width="70" height="30" as="geometry" />
        </mxCell>
        <mxCell id="HFbY0SZ3hscJM7pOWYyX-9" value="address" style="ellipse;whiteSpace=wrap;html=1;fillColor=#A8DADC;strokeColor=#457B9D;shadow=0;labelBackgroundColor=none;fontColor=#1D3557;" parent="1" vertex="1">
          <mxGeometry x="88.13" y="93" width="90" height="30" as="geometry" />
        </mxCell>
        <mxCell id="HFbY0SZ3hscJM7pOWYyX-12" value="" style="endArrow=none;html=1;rounded=0;exitX=0;exitY=1;exitDx=0;exitDy=0;entryX=1;entryY=1;entryDx=0;entryDy=0;strokeColor=#457B9D;shadow=0;labelBackgroundColor=none;fontColor=default;" parent="1" source="HFbY0SZ3hscJM7pOWYyX-7" target="HFbY0SZ3hscJM7pOWYyX-7" edge="1">
          <mxGeometry width="50" height="50" relative="1" as="geometry">
            <mxPoint x="40" y="120" as="sourcePoint" />
            <mxPoint x="90" y="80" as="targetPoint" />
          </mxGeometry>
        </mxCell>
        <mxCell id="HFbY0SZ3hscJM7pOWYyX-13" value="street" style="ellipse;whiteSpace=wrap;html=1;fillColor=#A8DADC;strokeColor=#457B9D;shadow=0;labelBackgroundColor=none;fontColor=#1D3557;" parent="1" vertex="1">
          <mxGeometry x="141.25" y="35" width="80" height="30" as="geometry" />
        </mxCell>
        <mxCell id="HFbY0SZ3hscJM7pOWYyX-15" value="city" style="ellipse;whiteSpace=wrap;html=1;fillColor=#A8DADC;strokeColor=#457B9D;shadow=0;labelBackgroundColor=none;fontColor=#1D3557;" parent="1" vertex="1">
          <mxGeometry x="40" y="35" width="80" height="30" as="geometry" />
        </mxCell>
        <mxCell id="HFbY0SZ3hscJM7pOWYyX-20" value="" style="endArrow=none;html=1;rounded=0;entryX=0.5;entryY=1;entryDx=0;entryDy=0;exitX=1;exitY=0;exitDx=0;exitDy=0;strokeColor=#457B9D;shadow=0;labelBackgroundColor=none;fontColor=default;" parent="1" source="HFbY0SZ3hscJM7pOWYyX-9" target="HFbY0SZ3hscJM7pOWYyX-13" edge="1">
          <mxGeometry width="50" height="50" relative="1" as="geometry">
            <mxPoint x="140" y="50" as="sourcePoint" />
            <mxPoint x="190" as="targetPoint" />
          </mxGeometry>
        </mxCell>
        <mxCell id="HFbY0SZ3hscJM7pOWYyX-21" value="" style="endArrow=none;html=1;rounded=0;entryX=0.5;entryY=1;entryDx=0;entryDy=0;exitX=0;exitY=0;exitDx=0;exitDy=0;strokeColor=#457B9D;shadow=0;labelBackgroundColor=none;fontColor=default;" parent="1" source="HFbY0SZ3hscJM7pOWYyX-9" target="HFbY0SZ3hscJM7pOWYyX-15" edge="1">
          <mxGeometry width="50" height="50" relative="1" as="geometry">
            <mxPoint x="40" y="60" as="sourcePoint" />
            <mxPoint x="90" y="10" as="targetPoint" />
          </mxGeometry>
        </mxCell>
        <mxCell id="HFbY0SZ3hscJM7pOWYyX-22" value="" style="endArrow=none;html=1;rounded=0;entryX=0.5;entryY=1;entryDx=0;entryDy=0;exitX=0.5;exitY=0;exitDx=0;exitDy=0;strokeColor=#457B9D;shadow=0;labelBackgroundColor=none;fontColor=default;" parent="1" source="HFbY0SZ3hscJM7pOWYyX-1" target="HFbY0SZ3hscJM7pOWYyX-9" edge="1">
          <mxGeometry width="50" height="50" relative="1" as="geometry">
            <mxPoint x="110" y="160" as="sourcePoint" />
            <mxPoint x="160" y="110" as="targetPoint" />
          </mxGeometry>
        </mxCell>
        <mxCell id="HFbY0SZ3hscJM7pOWYyX-23" value="" style="endArrow=none;html=1;rounded=0;exitX=0.75;exitY=0;exitDx=0;exitDy=0;entryX=0;entryY=1;entryDx=0;entryDy=0;strokeColor=#457B9D;shadow=0;labelBackgroundColor=none;fontColor=default;" parent="1" source="HFbY0SZ3hscJM7pOWYyX-1" target="HFbY0SZ3hscJM7pOWYyX-8" edge="1">
          <mxGeometry width="50" height="50" relative="1" as="geometry">
            <mxPoint x="190" y="170" as="sourcePoint" />
            <mxPoint x="240" y="120" as="targetPoint" />
          </mxGeometry>
        </mxCell>
        <mxCell id="HFbY0SZ3hscJM7pOWYyX-24" value="" style="endArrow=none;html=1;rounded=0;exitX=0.25;exitY=0;exitDx=0;exitDy=0;entryX=1;entryY=1;entryDx=0;entryDy=0;strokeColor=#457B9D;shadow=0;labelBackgroundColor=none;fontColor=default;" parent="1" source="HFbY0SZ3hscJM7pOWYyX-1" target="HFbY0SZ3hscJM7pOWYyX-7" edge="1">
          <mxGeometry width="50" height="50" relative="1" as="geometry">
            <mxPoint x="-10" y="170" as="sourcePoint" />
            <mxPoint x="40" y="120" as="targetPoint" />
          </mxGeometry>
        </mxCell>
        <mxCell id="HFbY0SZ3hscJM7pOWYyX-26" value="" style="ellipse;whiteSpace=wrap;html=1;fillColor=#A8DADC;strokeColor=#457B9D;shadow=0;labelBackgroundColor=none;fontColor=#1D3557;" parent="1" vertex="1">
          <mxGeometry x="-50" y="160" width="60" height="40" as="geometry" />
        </mxCell>
        <mxCell id="HFbY0SZ3hscJM7pOWYyX-28" value="" style="endArrow=none;html=1;rounded=0;exitX=1;exitY=0.5;exitDx=0;exitDy=0;strokeColor=#457B9D;shadow=0;labelBackgroundColor=none;fontColor=default;" parent="1" source="HFbY0SZ3hscJM7pOWYyX-26" edge="1">
          <mxGeometry width="50" height="50" relative="1" as="geometry">
            <mxPoint x="-40" y="180" as="sourcePoint" />
            <mxPoint x="80" y="181" as="targetPoint" />
          </mxGeometry>
        </mxCell>
        <mxCell id="HFbY0SZ3hscJM7pOWYyX-46" value="musician" style="text;html=1;align=center;verticalAlign=middle;whiteSpace=wrap;rounded=0;shadow=0;labelBackgroundColor=none;fontColor=#1D3557;" parent="1" vertex="1">
          <mxGeometry x="105" y="165" width="60" height="30" as="geometry" />
        </mxCell>
        <mxCell id="HFbY0SZ3hscJM7pOWYyX-47" value="phone" style="text;html=1;align=center;verticalAlign=middle;whiteSpace=wrap;rounded=0;shadow=0;labelBackgroundColor=none;fontColor=#1D3557;" parent="1" vertex="1">
          <mxGeometry x="-45" y="167.5" width="50" height="25" as="geometry" />
        </mxCell>
        <mxCell id="HFbY0SZ3hscJM7pOWYyX-48" value="" style="rounded=0;whiteSpace=wrap;html=1;fillColor=#A8DADC;strokeColor=#457B9D;shadow=0;labelBackgroundColor=none;fontColor=#1D3557;" parent="1" vertex="1">
          <mxGeometry x="570" y="160" width="120" height="40" as="geometry" />
        </mxCell>
        <mxCell id="HFbY0SZ3hscJM7pOWYyX-49" value="&lt;h1&gt;&lt;font style=&quot;font-size: 12px;&quot;&gt;Name&lt;/font&gt;&lt;/h1&gt;" style="ellipse;whiteSpace=wrap;html=1;fillColor=#A8DADC;strokeColor=#457B9D;shadow=0;labelBackgroundColor=none;fontColor=#1D3557;" parent="1" vertex="1">
          <mxGeometry x="520" y="60" width="75" height="30" as="geometry" />
        </mxCell>
        <mxCell id="HFbY0SZ3hscJM7pOWYyX-51" value="key" style="ellipse;whiteSpace=wrap;html=1;fillColor=#A8DADC;strokeColor=#457B9D;shadow=0;labelBackgroundColor=none;fontColor=#1D3557;" parent="1" vertex="1">
          <mxGeometry x="647.5" y="60" width="57.5" height="20" as="geometry" />
        </mxCell>
        <mxCell id="HFbY0SZ3hscJM7pOWYyX-52" value="" style="endArrow=none;html=1;rounded=0;exitX=0;exitY=1;exitDx=0;exitDy=0;entryX=1;entryY=1;entryDx=0;entryDy=0;strokeColor=#457B9D;shadow=0;labelBackgroundColor=none;fontColor=default;" parent="1" source="HFbY0SZ3hscJM7pOWYyX-49" target="HFbY0SZ3hscJM7pOWYyX-49" edge="1">
          <mxGeometry width="50" height="50" relative="1" as="geometry">
            <mxPoint x="530" y="120" as="sourcePoint" />
            <mxPoint x="580" y="80" as="targetPoint" />
          </mxGeometry>
        </mxCell>
        <mxCell id="HFbY0SZ3hscJM7pOWYyX-57" value="" style="endArrow=none;html=1;rounded=0;entryX=0.5;entryY=1;entryDx=0;entryDy=0;exitX=0.75;exitY=0;exitDx=0;exitDy=0;strokeColor=#457B9D;shadow=0;labelBackgroundColor=none;fontColor=default;" parent="1" source="HFbY0SZ3hscJM7pOWYyX-48" target="HFbY0SZ3hscJM7pOWYyX-51" edge="1">
          <mxGeometry width="50" height="50" relative="1" as="geometry">
            <mxPoint x="600" y="160" as="sourcePoint" />
            <mxPoint x="650" y="110" as="targetPoint" />
          </mxGeometry>
        </mxCell>
        <mxCell id="HFbY0SZ3hscJM7pOWYyX-59" value="" style="endArrow=none;html=1;rounded=0;exitX=0.25;exitY=0;exitDx=0;exitDy=0;entryX=1;entryY=1;entryDx=0;entryDy=0;strokeColor=#457B9D;shadow=0;labelBackgroundColor=none;fontColor=default;" parent="1" source="HFbY0SZ3hscJM7pOWYyX-48" target="HFbY0SZ3hscJM7pOWYyX-49" edge="1">
          <mxGeometry width="50" height="50" relative="1" as="geometry">
            <mxPoint x="480" y="170" as="sourcePoint" />
            <mxPoint x="530" y="120" as="targetPoint" />
          </mxGeometry>
        </mxCell>
        <mxCell id="HFbY0SZ3hscJM7pOWYyX-63" value="instument" style="text;html=1;align=center;verticalAlign=middle;whiteSpace=wrap;rounded=0;shadow=0;labelBackgroundColor=none;fontColor=#1D3557;" parent="1" vertex="1">
          <mxGeometry x="595" y="165" width="60" height="30" as="geometry" />
        </mxCell>
        <mxCell id="HFbY0SZ3hscJM7pOWYyX-65" value="" style="rounded=0;whiteSpace=wrap;html=1;fillColor=#A8DADC;strokeColor=#457B9D;shadow=0;labelBackgroundColor=none;fontColor=#1D3557;" parent="1" vertex="1">
          <mxGeometry x="565" y="440" width="120" height="40" as="geometry" />
        </mxCell>
        <mxCell id="HFbY0SZ3hscJM7pOWYyX-66" value="&lt;h1&gt;&lt;span style=&quot;font-size: 12px;&quot;&gt;abum_id&lt;/span&gt;&lt;/h1&gt;" style="ellipse;whiteSpace=wrap;html=1;fillColor=#A8DADC;strokeColor=#457B9D;shadow=0;labelBackgroundColor=none;fontColor=#1D3557;" parent="1" vertex="1">
          <mxGeometry x="510" y="570" width="110" height="50" as="geometry" />
        </mxCell>
        <mxCell id="HFbY0SZ3hscJM7pOWYyX-67" value="copyright date" style="ellipse;whiteSpace=wrap;html=1;fillColor=#A8DADC;strokeColor=#457B9D;shadow=0;labelBackgroundColor=none;fontColor=#1D3557;" parent="1" vertex="1">
          <mxGeometry x="720" y="570" width="110" height="50" as="geometry" />
        </mxCell>
        <mxCell id="HFbY0SZ3hscJM7pOWYyX-68" value="" style="endArrow=none;html=1;rounded=0;exitX=0;exitY=1;exitDx=0;exitDy=0;entryX=1;entryY=1;entryDx=0;entryDy=0;strokeColor=#457B9D;shadow=0;elbow=horizontal;labelBackgroundColor=none;fontColor=default;" parent="1" source="HFbY0SZ3hscJM7pOWYyX-66" target="HFbY0SZ3hscJM7pOWYyX-66" edge="1">
          <mxGeometry width="50" height="50" relative="1" as="geometry">
            <mxPoint x="525" y="400" as="sourcePoint" />
            <mxPoint x="575" y="360" as="targetPoint" />
          </mxGeometry>
        </mxCell>
        <mxCell id="HFbY0SZ3hscJM7pOWYyX-69" value="" style="endArrow=none;html=1;rounded=0;entryX=0.5;entryY=0;entryDx=0;entryDy=0;exitX=0.75;exitY=1;exitDx=0;exitDy=0;strokeColor=#457B9D;shadow=0;labelBackgroundColor=none;fontColor=default;" parent="1" source="HFbY0SZ3hscJM7pOWYyX-65" target="HFbY0SZ3hscJM7pOWYyX-67" edge="1">
          <mxGeometry width="50" height="50" relative="1" as="geometry">
            <mxPoint x="595" y="440" as="sourcePoint" />
            <mxPoint x="645" y="390" as="targetPoint" />
          </mxGeometry>
        </mxCell>
        <mxCell id="HFbY0SZ3hscJM7pOWYyX-70" value="" style="endArrow=none;html=1;rounded=0;exitX=0.5;exitY=1;exitDx=0;exitDy=0;entryX=0.5;entryY=0;entryDx=0;entryDy=0;strokeColor=#457B9D;shadow=0;labelBackgroundColor=none;fontColor=default;" parent="1" source="HFbY0SZ3hscJM7pOWYyX-65" target="HFbY0SZ3hscJM7pOWYyX-66" edge="1">
          <mxGeometry width="50" height="50" relative="1" as="geometry">
            <mxPoint x="475" y="450" as="sourcePoint" />
            <mxPoint x="525" y="400" as="targetPoint" />
          </mxGeometry>
        </mxCell>
        <mxCell id="HFbY0SZ3hscJM7pOWYyX-71" value="album" style="text;html=1;align=center;verticalAlign=middle;whiteSpace=wrap;rounded=0;shadow=0;labelBackgroundColor=none;fontColor=#1D3557;" parent="1" vertex="1">
          <mxGeometry x="590" y="445" width="60" height="30" as="geometry" />
        </mxCell>
        <mxCell id="HFbY0SZ3hscJM7pOWYyX-72" value="titlte" style="ellipse;whiteSpace=wrap;html=1;fillColor=#A8DADC;strokeColor=#457B9D;shadow=0;labelBackgroundColor=none;fontColor=#1D3557;" parent="1" vertex="1">
          <mxGeometry x="750" y="410" width="110" height="50" as="geometry" />
        </mxCell>
        <mxCell id="HFbY0SZ3hscJM7pOWYyX-73" value="" style="endArrow=none;html=1;rounded=0;entryX=0;entryY=1;entryDx=0;entryDy=0;exitX=1;exitY=0.5;exitDx=0;exitDy=0;strokeColor=#457B9D;shadow=0;labelBackgroundColor=none;fontColor=default;" parent="1" source="HFbY0SZ3hscJM7pOWYyX-65" target="HFbY0SZ3hscJM7pOWYyX-72" edge="1">
          <mxGeometry width="50" height="50" relative="1" as="geometry">
            <mxPoint x="760" y="530" as="sourcePoint" />
            <mxPoint x="750" y="480" as="targetPoint" />
          </mxGeometry>
        </mxCell>
        <mxCell id="HFbY0SZ3hscJM7pOWYyX-74" value="" style="rounded=0;whiteSpace=wrap;html=1;fillColor=#A8DADC;strokeColor=#457B9D;shadow=0;labelBackgroundColor=none;fontColor=#1D3557;" parent="1" vertex="1">
          <mxGeometry x="75" y="440" width="120" height="40" as="geometry" />
        </mxCell>
        <mxCell id="HFbY0SZ3hscJM7pOWYyX-75" value="&lt;h1&gt;&lt;span style=&quot;font-size: 12px;&quot;&gt;title&lt;/span&gt;&lt;/h1&gt;" style="ellipse;whiteSpace=wrap;html=1;fillColor=#A8DADC;strokeColor=#457B9D;shadow=0;labelBackgroundColor=none;fontColor=#1D3557;" parent="1" vertex="1">
          <mxGeometry x="-70" y="525" width="110" height="50" as="geometry" />
        </mxCell>
        <mxCell id="HFbY0SZ3hscJM7pOWYyX-76" value="author" style="ellipse;whiteSpace=wrap;html=1;fillColor=#A8DADC;strokeColor=#457B9D;shadow=0;labelBackgroundColor=none;fontColor=#1D3557;" parent="1" vertex="1">
          <mxGeometry x="195" y="565" width="110" height="50" as="geometry" />
        </mxCell>
        <mxCell id="HFbY0SZ3hscJM7pOWYyX-77" value="" style="endArrow=none;html=1;rounded=0;exitX=0;exitY=1;exitDx=0;exitDy=0;entryX=1;entryY=1;entryDx=0;entryDy=0;strokeColor=#457B9D;shadow=0;labelBackgroundColor=none;fontColor=default;" parent="1" source="HFbY0SZ3hscJM7pOWYyX-75" target="HFbY0SZ3hscJM7pOWYyX-75" edge="1">
          <mxGeometry width="50" height="50" relative="1" as="geometry">
            <mxPoint x="35" y="400" as="sourcePoint" />
            <mxPoint x="85" y="360" as="targetPoint" />
          </mxGeometry>
        </mxCell>
        <mxCell id="HFbY0SZ3hscJM7pOWYyX-78" value="" style="endArrow=none;html=1;rounded=0;entryX=0;entryY=0;entryDx=0;entryDy=0;exitX=0.75;exitY=1;exitDx=0;exitDy=0;strokeColor=#457B9D;shadow=0;labelBackgroundColor=none;fontColor=default;" parent="1" source="HFbY0SZ3hscJM7pOWYyX-74" target="HFbY0SZ3hscJM7pOWYyX-76" edge="1">
          <mxGeometry width="50" height="50" relative="1" as="geometry">
            <mxPoint x="105" y="440" as="sourcePoint" />
            <mxPoint x="155" y="390" as="targetPoint" />
            <Array as="points" />
          </mxGeometry>
        </mxCell>
        <mxCell id="HFbY0SZ3hscJM7pOWYyX-79" value="" style="endArrow=none;html=1;rounded=0;exitX=0.25;exitY=1;exitDx=0;exitDy=0;entryX=1;entryY=0;entryDx=0;entryDy=0;strokeColor=#457B9D;shadow=0;labelBackgroundColor=none;fontColor=default;" parent="1" source="HFbY0SZ3hscJM7pOWYyX-74" target="HFbY0SZ3hscJM7pOWYyX-75" edge="1">
          <mxGeometry width="50" height="50" relative="1" as="geometry">
            <mxPoint x="-15" y="450" as="sourcePoint" />
            <mxPoint x="35" y="400" as="targetPoint" />
          </mxGeometry>
        </mxCell>
        <mxCell id="HFbY0SZ3hscJM7pOWYyX-80" value="song" style="text;html=1;align=center;verticalAlign=middle;whiteSpace=wrap;rounded=0;shadow=0;labelBackgroundColor=none;fontColor=#1D3557;" parent="1" vertex="1">
          <mxGeometry x="100" y="445" width="60" height="30" as="geometry" />
        </mxCell>
        <mxCell id="HFbY0SZ3hscJM7pOWYyX-83" value="" style="rhombus;whiteSpace=wrap;html=1;labelBackgroundColor=none;fillColor=#A8DADC;strokeColor=#457B9D;fontColor=#1D3557;" parent="1" vertex="1">
          <mxGeometry x="350" y="140" width="80" height="80" as="geometry" />
        </mxCell>
        <mxCell id="HFbY0SZ3hscJM7pOWYyX-84" value="" style="endArrow=none;html=1;rounded=0;entryX=0;entryY=0.5;entryDx=0;entryDy=0;exitX=1;exitY=0.5;exitDx=0;exitDy=0;labelBackgroundColor=none;strokeColor=#457B9D;fontColor=default;" parent="1" source="HFbY0SZ3hscJM7pOWYyX-1" target="HFbY0SZ3hscJM7pOWYyX-83" edge="1">
          <mxGeometry width="50" height="50" relative="1" as="geometry">
            <mxPoint x="250" y="210" as="sourcePoint" />
            <mxPoint x="300" y="160" as="targetPoint" />
          </mxGeometry>
        </mxCell>
        <mxCell id="HFbY0SZ3hscJM7pOWYyX-85" value="" style="endArrow=none;html=1;rounded=0;entryX=0;entryY=0.5;entryDx=0;entryDy=0;labelBackgroundColor=none;strokeColor=#457B9D;fontColor=default;" parent="1" source="HFbY0SZ3hscJM7pOWYyX-83" target="HFbY0SZ3hscJM7pOWYyX-48" edge="1">
          <mxGeometry width="50" height="50" relative="1" as="geometry">
            <mxPoint x="430" y="230" as="sourcePoint" />
            <mxPoint x="500.71067811865476" y="180" as="targetPoint" />
          </mxGeometry>
        </mxCell>
        <mxCell id="HFbY0SZ3hscJM7pOWYyX-87" value="Play" style="text;html=1;align=center;verticalAlign=middle;whiteSpace=wrap;rounded=0;labelBackgroundColor=none;fontColor=#1D3557;" parent="1" vertex="1">
          <mxGeometry x="360" y="165" width="60" height="30" as="geometry" />
        </mxCell>
        <mxCell id="HFbY0SZ3hscJM7pOWYyX-88" value="" style="rhombus;whiteSpace=wrap;html=1;labelBackgroundColor=none;fillColor=#A8DADC;strokeColor=#457B9D;fontColor=#1D3557;" parent="1" vertex="1">
          <mxGeometry x="345" y="420" width="80" height="80" as="geometry" />
        </mxCell>
        <mxCell id="HFbY0SZ3hscJM7pOWYyX-89" value="" style="endArrow=none;html=1;rounded=0;entryX=0;entryY=0.5;entryDx=0;entryDy=0;exitX=1;exitY=0.5;exitDx=0;exitDy=0;labelBackgroundColor=none;strokeColor=#457B9D;fontColor=default;" parent="1" target="HFbY0SZ3hscJM7pOWYyX-88" edge="1">
          <mxGeometry width="50" height="50" relative="1" as="geometry">
            <mxPoint x="195" y="460" as="sourcePoint" />
            <mxPoint x="295" y="440" as="targetPoint" />
          </mxGeometry>
        </mxCell>
        <mxCell id="HFbY0SZ3hscJM7pOWYyX-90" value="" style="endArrow=none;html=1;rounded=0;entryX=0;entryY=0.5;entryDx=0;entryDy=0;labelBackgroundColor=none;strokeColor=#457B9D;fontColor=default;" parent="1" source="HFbY0SZ3hscJM7pOWYyX-88" edge="1">
          <mxGeometry width="50" height="50" relative="1" as="geometry">
            <mxPoint x="425" y="510" as="sourcePoint" />
            <mxPoint x="565" y="460" as="targetPoint" />
          </mxGeometry>
        </mxCell>
        <mxCell id="HFbY0SZ3hscJM7pOWYyX-91" value="Has" style="text;html=1;align=center;verticalAlign=middle;whiteSpace=wrap;rounded=0;labelBackgroundColor=none;fontColor=#1D3557;" parent="1" vertex="1">
          <mxGeometry x="355" y="445" width="60" height="30" as="geometry" />
        </mxCell>
        <mxCell id="HFbY0SZ3hscJM7pOWYyX-92" value="" style="rhombus;whiteSpace=wrap;html=1;labelBackgroundColor=none;fillColor=#A8DADC;strokeColor=#457B9D;fontColor=#1D3557;" parent="1" vertex="1">
          <mxGeometry x="95" y="270" width="80" height="80" as="geometry" />
        </mxCell>
        <mxCell id="HFbY0SZ3hscJM7pOWYyX-93" value="" style="endArrow=none;html=1;rounded=0;entryX=0.5;entryY=1;entryDx=0;entryDy=0;exitX=0.5;exitY=0;exitDx=0;exitDy=0;labelBackgroundColor=none;strokeColor=#457B9D;fontColor=default;" parent="1" source="HFbY0SZ3hscJM7pOWYyX-74" target="HFbY0SZ3hscJM7pOWYyX-92" edge="1">
          <mxGeometry width="50" height="50" relative="1" as="geometry">
            <mxPoint x="-50" y="310" as="sourcePoint" />
            <mxPoint x="50" y="290" as="targetPoint" />
          </mxGeometry>
        </mxCell>
        <mxCell id="HFbY0SZ3hscJM7pOWYyX-94" value="" style="endArrow=none;html=1;rounded=0;entryX=0.5;entryY=1;entryDx=0;entryDy=0;exitX=0.5;exitY=0;exitDx=0;exitDy=0;labelBackgroundColor=none;strokeColor=#457B9D;fontColor=default;" parent="1" source="HFbY0SZ3hscJM7pOWYyX-92" target="HFbY0SZ3hscJM7pOWYyX-1" edge="1">
          <mxGeometry width="50" height="50" relative="1" as="geometry">
            <mxPoint x="180" y="360" as="sourcePoint" />
            <mxPoint x="320" y="310" as="targetPoint" />
          </mxGeometry>
        </mxCell>
        <mxCell id="HFbY0SZ3hscJM7pOWYyX-95" value="Perform" style="text;html=1;align=center;verticalAlign=middle;whiteSpace=wrap;rounded=0;labelBackgroundColor=none;fontColor=#1D3557;" parent="1" vertex="1">
          <mxGeometry x="105" y="295" width="60" height="30" as="geometry" />
        </mxCell>
        <mxCell id="HFbY0SZ3hscJM7pOWYyX-96" value="" style="rhombus;whiteSpace=wrap;html=1;labelBackgroundColor=none;fillColor=#A8DADC;strokeColor=#457B9D;fontColor=#1D3557;" parent="1" vertex="1">
          <mxGeometry x="355" y="270" width="80" height="80" as="geometry" />
        </mxCell>
        <mxCell id="HFbY0SZ3hscJM7pOWYyX-97" value="" style="endArrow=none;html=1;rounded=0;entryX=1;entryY=1;entryDx=0;entryDy=0;exitX=0;exitY=0.5;exitDx=0;exitDy=0;labelBackgroundColor=none;strokeColor=#457B9D;fontColor=default;" parent="1" source="HFbY0SZ3hscJM7pOWYyX-96" target="HFbY0SZ3hscJM7pOWYyX-1" edge="1">
          <mxGeometry width="50" height="50" relative="1" as="geometry">
            <mxPoint x="284.28932188134524" y="360" as="sourcePoint" />
            <mxPoint x="284.28932188134524" y="310" as="targetPoint" />
          </mxGeometry>
        </mxCell>
        <mxCell id="HFbY0SZ3hscJM7pOWYyX-98" value="" style="endArrow=none;html=1;rounded=0;entryX=0.5;entryY=0;entryDx=0;entryDy=0;exitX=1;exitY=0.5;exitDx=0;exitDy=0;labelBackgroundColor=none;strokeColor=#457B9D;fontColor=default;" parent="1" source="HFbY0SZ3hscJM7pOWYyX-96" target="HFbY0SZ3hscJM7pOWYyX-65" edge="1">
          <mxGeometry width="50" height="50" relative="1" as="geometry">
            <mxPoint x="435" y="360" as="sourcePoint" />
            <mxPoint x="505.71067811865476" y="310" as="targetPoint" />
          </mxGeometry>
        </mxCell>
        <mxCell id="HFbY0SZ3hscJM7pOWYyX-99" value="Produce" style="text;html=1;align=center;verticalAlign=middle;whiteSpace=wrap;rounded=0;labelBackgroundColor=none;fontColor=#1D3557;" parent="1" vertex="1">
          <mxGeometry x="365" y="295" width="60" height="30" as="geometry" />
        </mxCell>
        <mxCell id="HFbY0SZ3hscJM7pOWYyX-102" value="M" style="text;html=1;align=center;verticalAlign=middle;whiteSpace=wrap;rounded=0;labelBackgroundColor=none;fontColor=#1D3557;" parent="1" vertex="1">
          <mxGeometry x="520" y="150" width="60" height="30" as="geometry" />
        </mxCell>
        <mxCell id="HFbY0SZ3hscJM7pOWYyX-103" value="M" style="text;html=1;align=center;verticalAlign=middle;whiteSpace=wrap;rounded=0;labelBackgroundColor=none;fontColor=#1D3557;" parent="1" vertex="1">
          <mxGeometry x="190" y="460" width="60" height="30" as="geometry" />
        </mxCell>
        <mxCell id="HFbY0SZ3hscJM7pOWYyX-104" value="1" style="text;html=1;align=center;verticalAlign=middle;whiteSpace=wrap;rounded=0;labelBackgroundColor=none;fontColor=#1D3557;" parent="1" vertex="1">
          <mxGeometry x="505" y="460" width="60" height="30" as="geometry" />
        </mxCell>
        <mxCell id="HFbY0SZ3hscJM7pOWYyX-105" value="M" style="text;html=1;align=center;verticalAlign=middle;whiteSpace=wrap;rounded=0;labelBackgroundColor=none;fontColor=#1D3557;" parent="1" vertex="1">
          <mxGeometry x="90" y="200" width="60" height="30" as="geometry" />
        </mxCell>
        <mxCell id="HFbY0SZ3hscJM7pOWYyX-106" value="M" style="text;html=1;align=center;verticalAlign=middle;whiteSpace=wrap;rounded=0;labelBackgroundColor=none;fontColor=#1D3557;" parent="1" vertex="1">
          <mxGeometry x="90" y="410" width="60" height="30" as="geometry" />
        </mxCell>
        <mxCell id="HFbY0SZ3hscJM7pOWYyX-107" value="1" style="text;html=1;align=center;verticalAlign=middle;whiteSpace=wrap;rounded=0;labelBackgroundColor=none;fontColor=#1D3557;" parent="1" vertex="1">
          <mxGeometry x="190" y="190" width="60" height="30" as="geometry" />
        </mxCell>
        <mxCell id="HFbY0SZ3hscJM7pOWYyX-110" value="M" style="text;html=1;align=center;verticalAlign=middle;whiteSpace=wrap;rounded=0;labelBackgroundColor=none;fontColor=#1D3557;" parent="1" vertex="1">
          <mxGeometry x="602.5" y="415" width="60" height="30" as="geometry" />
        </mxCell>
        <mxCell id="HFbY0SZ3hscJM7pOWYyX-112" value="" style="endArrow=none;html=1;rounded=0;exitX=0.063;exitY=0.375;exitDx=0;exitDy=0;exitPerimeter=0;entryX=1;entryY=0.25;entryDx=0;entryDy=0;labelBackgroundColor=none;strokeColor=#457B9D;fontColor=default;" parent="1" source="HFbY0SZ3hscJM7pOWYyX-88" target="HFbY0SZ3hscJM7pOWYyX-74" edge="1">
          <mxGeometry width="50" height="50" relative="1" as="geometry">
            <mxPoint x="470" y="450" as="sourcePoint" />
            <mxPoint x="520" y="400" as="targetPoint" />
          </mxGeometry>
        </mxCell>
        <mxCell id="HFbY0SZ3hscJM7pOWYyX-114" value="" style="endArrow=none;html=1;rounded=0;entryX=0.638;entryY=0.89;entryDx=0;entryDy=0;entryPerimeter=0;exitX=0.895;exitY=0.974;exitDx=0;exitDy=0;labelBackgroundColor=none;strokeColor=#457B9D;fontColor=default;exitPerimeter=0;" parent="1" source="HFbY0SZ3hscJM7pOWYyX-106" target="HFbY0SZ3hscJM7pOWYyX-92" edge="1">
          <mxGeometry width="50" height="50" relative="1" as="geometry">
            <mxPoint x="150" y="430" as="sourcePoint" />
            <mxPoint x="200" y="380" as="targetPoint" />
          </mxGeometry>
        </mxCell>
        <mxCell id="HFbY0SZ3hscJM7pOWYyX-115" value="" style="endArrow=none;html=1;rounded=0;exitX=0.375;exitY=0.025;exitDx=0;exitDy=0;exitPerimeter=0;labelBackgroundColor=none;strokeColor=#457B9D;fontColor=default;entryX=0.932;entryY=0.586;entryDx=0;entryDy=0;entryPerimeter=0;" parent="1" source="HFbY0SZ3hscJM7pOWYyX-65" target="HFbY0SZ3hscJM7pOWYyX-96" edge="1">
          <mxGeometry width="50" height="50" relative="1" as="geometry">
            <mxPoint x="590" y="410" as="sourcePoint" />
            <mxPoint x="440" y="300" as="targetPoint" />
          </mxGeometry>
        </mxCell>
        <mxCell id="dQtb5P0k24ia0JGGlsfE-3" value="&lt;font face=&quot;Cambria, serif&quot;&gt;&lt;span style=&quot;font-size: 48px;&quot;&gt;problem1&lt;/span&gt;&lt;/font&gt;" style="text;html=1;align=center;verticalAlign=middle;whiteSpace=wrap;rounded=0;labelBackgroundColor=none;fontColor=#1D3557;" parent="1" vertex="1">
          <mxGeometry x="160" y="-170" width="390" height="110" as="geometry" />
        </mxCell>
        <mxCell id="dQtb5P0k24ia0JGGlsfE-5" value="&lt;span style=&quot;font-family: &amp;quot;Times New Roman&amp;quot;, serif;&quot;&gt;&lt;font style=&quot;font-size: 48px;&quot;&gt;problem2&lt;/font&gt;&lt;/span&gt;" style="text;html=1;align=center;verticalAlign=middle;whiteSpace=wrap;rounded=0;labelBackgroundColor=none;fontColor=#1D3557;" parent="1" vertex="1">
          <mxGeometry x="1615" y="-280" width="330" height="160" as="geometry" />
        </mxCell>
        <mxCell id="dQtb5P0k24ia0JGGlsfE-15" value="" style="rounded=0;whiteSpace=wrap;html=1;fillColor=#A8DADC;strokeColor=#457B9D;shadow=0;labelBackgroundColor=none;fontColor=#1D3557;" parent="1" vertex="1">
          <mxGeometry x="1625" y="5" width="120" height="40" as="geometry" />
        </mxCell>
        <mxCell id="dQtb5P0k24ia0JGGlsfE-16" value="&lt;h1&gt;&lt;span style=&quot;font-size: 12px;&quot;&gt;Num&lt;/span&gt;&lt;/h1&gt;" style="ellipse;whiteSpace=wrap;html=1;fillColor=#A8DADC;strokeColor=#457B9D;shadow=0;labelBackgroundColor=none;fontColor=#1D3557;" parent="1" vertex="1">
          <mxGeometry x="1540" y="-115" width="110" height="50" as="geometry" />
        </mxCell>
        <mxCell id="dQtb5P0k24ia0JGGlsfE-17" value="Location" style="ellipse;whiteSpace=wrap;html=1;fillColor=#A8DADC;strokeColor=#457B9D;shadow=0;labelBackgroundColor=none;fontColor=#1D3557;" parent="1" vertex="1">
          <mxGeometry x="1705" y="-115" width="110" height="50" as="geometry" />
        </mxCell>
        <mxCell id="dQtb5P0k24ia0JGGlsfE-18" value="" style="endArrow=none;html=1;rounded=0;exitX=0;exitY=1;exitDx=0;exitDy=0;entryX=1;entryY=1;entryDx=0;entryDy=0;strokeColor=#457B9D;shadow=0;labelBackgroundColor=none;fontColor=default;" parent="1" source="dQtb5P0k24ia0JGGlsfE-16" target="dQtb5P0k24ia0JGGlsfE-16" edge="1">
          <mxGeometry width="50" height="50" relative="1" as="geometry">
            <mxPoint x="1585" y="-35" as="sourcePoint" />
            <mxPoint x="1635" y="-75" as="targetPoint" />
          </mxGeometry>
        </mxCell>
        <mxCell id="dQtb5P0k24ia0JGGlsfE-19" value="" style="endArrow=none;html=1;rounded=0;entryX=0;entryY=1;entryDx=0;entryDy=0;exitX=0.75;exitY=0;exitDx=0;exitDy=0;strokeColor=#457B9D;shadow=0;labelBackgroundColor=none;fontColor=default;" parent="1" source="dQtb5P0k24ia0JGGlsfE-15" target="dQtb5P0k24ia0JGGlsfE-17" edge="1">
          <mxGeometry width="50" height="50" relative="1" as="geometry">
            <mxPoint x="1655" y="5" as="sourcePoint" />
            <mxPoint x="1705" y="-45" as="targetPoint" />
          </mxGeometry>
        </mxCell>
        <mxCell id="dQtb5P0k24ia0JGGlsfE-20" value="" style="endArrow=none;html=1;rounded=0;exitX=0.25;exitY=0;exitDx=0;exitDy=0;entryX=1;entryY=1;entryDx=0;entryDy=0;strokeColor=#457B9D;shadow=0;labelBackgroundColor=none;fontColor=default;" parent="1" source="dQtb5P0k24ia0JGGlsfE-15" target="dQtb5P0k24ia0JGGlsfE-16" edge="1">
          <mxGeometry width="50" height="50" relative="1" as="geometry">
            <mxPoint x="1535" y="15" as="sourcePoint" />
            <mxPoint x="1585" y="-35" as="targetPoint" />
          </mxGeometry>
        </mxCell>
        <mxCell id="dQtb5P0k24ia0JGGlsfE-21" value="office" style="text;html=1;align=center;verticalAlign=middle;whiteSpace=wrap;rounded=0;shadow=0;labelBackgroundColor=none;fontColor=#1D3557;" parent="1" vertex="1">
          <mxGeometry x="1650" y="10" width="60" height="30" as="geometry" />
        </mxCell>
        <mxCell id="dQtb5P0k24ia0JGGlsfE-23" value="" style="rounded=0;whiteSpace=wrap;html=1;fillColor=#A8DADC;strokeColor=#457B9D;shadow=0;labelBackgroundColor=none;fontColor=#1D3557;" parent="1" vertex="1">
          <mxGeometry x="2115" y="5" width="120" height="40" as="geometry" />
        </mxCell>
        <mxCell id="dQtb5P0k24ia0JGGlsfE-24" value="&lt;h1&gt;&lt;font style=&quot;font-size: 12px;&quot;&gt;Id&lt;/font&gt;&lt;/h1&gt;" style="ellipse;whiteSpace=wrap;html=1;fillColor=#A8DADC;strokeColor=#457B9D;shadow=0;labelBackgroundColor=none;fontColor=#1D3557;" parent="1" vertex="1">
          <mxGeometry x="2030" y="-115" width="110" height="50" as="geometry" />
        </mxCell>
        <mxCell id="dQtb5P0k24ia0JGGlsfE-25" value="Name" style="ellipse;whiteSpace=wrap;html=1;fillColor=#A8DADC;strokeColor=#457B9D;shadow=0;labelBackgroundColor=none;fontColor=#1D3557;" parent="1" vertex="1">
          <mxGeometry x="2195" y="-115" width="110" height="50" as="geometry" />
        </mxCell>
        <mxCell id="dQtb5P0k24ia0JGGlsfE-26" value="" style="endArrow=none;html=1;rounded=0;exitX=0;exitY=1;exitDx=0;exitDy=0;entryX=1;entryY=1;entryDx=0;entryDy=0;strokeColor=#457B9D;shadow=0;labelBackgroundColor=none;fontColor=default;" parent="1" source="dQtb5P0k24ia0JGGlsfE-24" target="dQtb5P0k24ia0JGGlsfE-24" edge="1">
          <mxGeometry width="50" height="50" relative="1" as="geometry">
            <mxPoint x="2075" y="-35" as="sourcePoint" />
            <mxPoint x="2125" y="-75" as="targetPoint" />
          </mxGeometry>
        </mxCell>
        <mxCell id="dQtb5P0k24ia0JGGlsfE-27" value="" style="endArrow=none;html=1;rounded=0;entryX=0;entryY=1;entryDx=0;entryDy=0;exitX=0.75;exitY=0;exitDx=0;exitDy=0;strokeColor=#457B9D;shadow=0;labelBackgroundColor=none;fontColor=default;" parent="1" source="dQtb5P0k24ia0JGGlsfE-23" target="dQtb5P0k24ia0JGGlsfE-25" edge="1">
          <mxGeometry width="50" height="50" relative="1" as="geometry">
            <mxPoint x="2145" y="5" as="sourcePoint" />
            <mxPoint x="2195" y="-45" as="targetPoint" />
          </mxGeometry>
        </mxCell>
        <mxCell id="dQtb5P0k24ia0JGGlsfE-28" value="" style="endArrow=none;html=1;rounded=0;exitX=0.25;exitY=0;exitDx=0;exitDy=0;entryX=1;entryY=1;entryDx=0;entryDy=0;strokeColor=#457B9D;shadow=0;labelBackgroundColor=none;fontColor=default;" parent="1" source="dQtb5P0k24ia0JGGlsfE-23" target="dQtb5P0k24ia0JGGlsfE-24" edge="1">
          <mxGeometry width="50" height="50" relative="1" as="geometry">
            <mxPoint x="2025" y="15" as="sourcePoint" />
            <mxPoint x="2075" y="-35" as="targetPoint" />
          </mxGeometry>
        </mxCell>
        <mxCell id="dQtb5P0k24ia0JGGlsfE-29" value="employee" style="text;html=1;align=center;verticalAlign=middle;whiteSpace=wrap;rounded=0;shadow=0;labelBackgroundColor=none;fontColor=#1D3557;" parent="1" vertex="1">
          <mxGeometry x="2140" y="10" width="60" height="30" as="geometry" />
        </mxCell>
        <mxCell id="dQtb5P0k24ia0JGGlsfE-31" value="" style="rounded=0;whiteSpace=wrap;html=1;fillColor=#A8DADC;strokeColor=#457B9D;shadow=0;labelBackgroundColor=none;fontColor=#1D3557;" parent="1" vertex="1">
          <mxGeometry x="1605" y="310" width="120" height="40" as="geometry" />
        </mxCell>
        <mxCell id="dQtb5P0k24ia0JGGlsfE-32" value="&lt;h1&gt;&lt;font style=&quot;font-size: 12px;&quot;&gt;Id&lt;/font&gt;&lt;/h1&gt;" style="ellipse;whiteSpace=wrap;html=1;fillColor=#A8DADC;strokeColor=#457B9D;shadow=0;labelBackgroundColor=none;fontColor=#1D3557;" parent="1" vertex="1">
          <mxGeometry x="1570" y="210" width="60" height="30" as="geometry" />
        </mxCell>
        <mxCell id="dQtb5P0k24ia0JGGlsfE-33" value="Location" style="ellipse;whiteSpace=wrap;html=1;fillColor=#A8DADC;strokeColor=#457B9D;shadow=0;labelBackgroundColor=none;fontColor=#1D3557;" parent="1" vertex="1">
          <mxGeometry x="1510" y="290" width="80" height="30" as="geometry" />
        </mxCell>
        <mxCell id="dQtb5P0k24ia0JGGlsfE-34" value="" style="endArrow=none;html=1;rounded=0;exitX=0;exitY=1;exitDx=0;exitDy=0;entryX=1;entryY=1;entryDx=0;entryDy=0;strokeColor=#457B9D;shadow=0;labelBackgroundColor=none;fontColor=default;" parent="1" source="dQtb5P0k24ia0JGGlsfE-32" target="dQtb5P0k24ia0JGGlsfE-32" edge="1">
          <mxGeometry width="50" height="50" relative="1" as="geometry">
            <mxPoint x="1565" y="270" as="sourcePoint" />
            <mxPoint x="1615" y="230" as="targetPoint" />
          </mxGeometry>
        </mxCell>
        <mxCell id="dQtb5P0k24ia0JGGlsfE-35" value="" style="endArrow=none;html=1;rounded=0;entryX=1;entryY=0.5;entryDx=0;entryDy=0;exitX=0;exitY=0.5;exitDx=0;exitDy=0;strokeColor=#457B9D;shadow=0;labelBackgroundColor=none;fontColor=default;" parent="1" source="dQtb5P0k24ia0JGGlsfE-31" target="dQtb5P0k24ia0JGGlsfE-33" edge="1">
          <mxGeometry width="50" height="50" relative="1" as="geometry">
            <mxPoint x="1635" y="310" as="sourcePoint" />
            <mxPoint x="1685" y="260" as="targetPoint" />
          </mxGeometry>
        </mxCell>
        <mxCell id="dQtb5P0k24ia0JGGlsfE-36" value="" style="endArrow=none;html=1;rounded=0;exitX=0.25;exitY=0;exitDx=0;exitDy=0;entryX=1;entryY=1;entryDx=0;entryDy=0;strokeColor=#457B9D;shadow=0;labelBackgroundColor=none;fontColor=default;" parent="1" source="dQtb5P0k24ia0JGGlsfE-31" target="dQtb5P0k24ia0JGGlsfE-32" edge="1">
          <mxGeometry width="50" height="50" relative="1" as="geometry">
            <mxPoint x="1515" y="320" as="sourcePoint" />
            <mxPoint x="1565" y="270" as="targetPoint" />
          </mxGeometry>
        </mxCell>
        <mxCell id="dQtb5P0k24ia0JGGlsfE-37" value="property" style="text;html=1;align=center;verticalAlign=middle;whiteSpace=wrap;rounded=0;shadow=0;labelBackgroundColor=none;fontColor=#1D3557;" parent="1" vertex="1">
          <mxGeometry x="1630" y="315" width="60" height="30" as="geometry" />
        </mxCell>
        <mxCell id="dQtb5P0k24ia0JGGlsfE-38" value="" style="ellipse;whiteSpace=wrap;html=1;fillColor=#A8DADC;strokeColor=#457B9D;labelBackgroundColor=none;fontColor=#1D3557;" parent="1" vertex="1">
          <mxGeometry x="1440" y="195" width="100" height="45" as="geometry" />
        </mxCell>
        <mxCell id="dQtb5P0k24ia0JGGlsfE-39" value="" style="ellipse;whiteSpace=wrap;html=1;fillColor=#A8DADC;strokeColor=#457B9D;labelBackgroundColor=none;fontColor=#1D3557;" parent="1" vertex="1">
          <mxGeometry x="1340" y="235" width="100" height="45" as="geometry" />
        </mxCell>
        <mxCell id="dQtb5P0k24ia0JGGlsfE-40" value="" style="ellipse;whiteSpace=wrap;html=1;fillColor=#A8DADC;strokeColor=#457B9D;labelBackgroundColor=none;fontColor=#1D3557;" parent="1" vertex="1">
          <mxGeometry x="1444" y="345" width="100" height="45" as="geometry" />
        </mxCell>
        <mxCell id="dQtb5P0k24ia0JGGlsfE-41" value="" style="ellipse;whiteSpace=wrap;html=1;fillColor=#A8DADC;strokeColor=#457B9D;labelBackgroundColor=none;fontColor=#1D3557;" parent="1" vertex="1">
          <mxGeometry x="1370" y="300" width="100" height="45" as="geometry" />
        </mxCell>
        <mxCell id="dQtb5P0k24ia0JGGlsfE-42" value="" style="endArrow=none;html=1;rounded=0;entryX=0.651;entryY=0.957;entryDx=0;entryDy=0;entryPerimeter=0;exitX=0.5;exitY=0;exitDx=0;exitDy=0;strokeColor=#457B9D;labelBackgroundColor=none;fontColor=default;" parent="1" source="dQtb5P0k24ia0JGGlsfE-33" target="dQtb5P0k24ia0JGGlsfE-38" edge="1">
          <mxGeometry width="50" height="50" relative="1" as="geometry">
            <mxPoint x="1490" y="260" as="sourcePoint" />
            <mxPoint x="1540" y="210" as="targetPoint" />
          </mxGeometry>
        </mxCell>
        <mxCell id="dQtb5P0k24ia0JGGlsfE-43" value="" style="endArrow=none;html=1;rounded=0;entryX=1;entryY=0.5;entryDx=0;entryDy=0;exitX=0;exitY=1;exitDx=0;exitDy=0;strokeColor=#457B9D;labelBackgroundColor=none;fontColor=default;" parent="1" source="dQtb5P0k24ia0JGGlsfE-33" target="dQtb5P0k24ia0JGGlsfE-41" edge="1">
          <mxGeometry width="50" height="50" relative="1" as="geometry">
            <mxPoint x="1470" y="343.5" as="sourcePoint" />
            <mxPoint x="1420" y="266.5" as="targetPoint" />
          </mxGeometry>
        </mxCell>
        <mxCell id="dQtb5P0k24ia0JGGlsfE-44" value="" style="endArrow=none;html=1;rounded=0;entryX=0.5;entryY=0;entryDx=0;entryDy=0;exitX=0.5;exitY=1;exitDx=0;exitDy=0;strokeColor=#457B9D;labelBackgroundColor=none;fontColor=default;" parent="1" source="dQtb5P0k24ia0JGGlsfE-33" target="dQtb5P0k24ia0JGGlsfE-40" edge="1">
          <mxGeometry width="50" height="50" relative="1" as="geometry">
            <mxPoint x="1555" y="290" as="sourcePoint" />
            <mxPoint x="1505" y="213" as="targetPoint" />
            <Array as="points" />
          </mxGeometry>
        </mxCell>
        <mxCell id="dQtb5P0k24ia0JGGlsfE-45" value="" style="endArrow=none;html=1;rounded=0;entryX=1;entryY=0.5;entryDx=0;entryDy=0;exitX=0;exitY=0;exitDx=0;exitDy=0;strokeColor=#457B9D;labelBackgroundColor=none;fontColor=default;" parent="1" source="dQtb5P0k24ia0JGGlsfE-33" target="dQtb5P0k24ia0JGGlsfE-39" edge="1">
          <mxGeometry width="50" height="50" relative="1" as="geometry">
            <mxPoint x="1480" y="297" as="sourcePoint" />
            <mxPoint x="1430" y="220" as="targetPoint" />
          </mxGeometry>
        </mxCell>
        <mxCell id="dQtb5P0k24ia0JGGlsfE-47" value="address" style="text;html=1;align=center;verticalAlign=middle;whiteSpace=wrap;rounded=0;fillColor=#A8DADC;strokeColor=#457B9D;labelBackgroundColor=none;fontColor=#1D3557;" parent="1" vertex="1">
          <mxGeometry x="1460" y="203" width="60" height="30" as="geometry" />
        </mxCell>
        <mxCell id="dQtb5P0k24ia0JGGlsfE-48" value="city" style="text;html=1;align=center;verticalAlign=middle;whiteSpace=wrap;rounded=0;fillColor=#A8DADC;strokeColor=#457B9D;labelBackgroundColor=none;fontColor=#1D3557;" parent="1" vertex="1">
          <mxGeometry x="1360" y="243" width="60" height="30" as="geometry" />
        </mxCell>
        <mxCell id="dQtb5P0k24ia0JGGlsfE-49" value="zip_code" style="text;html=1;align=center;verticalAlign=middle;whiteSpace=wrap;rounded=0;fillColor=#A8DADC;strokeColor=#457B9D;labelBackgroundColor=none;fontColor=#1D3557;" parent="1" vertex="1">
          <mxGeometry x="1390" y="307.5" width="60" height="30" as="geometry" />
        </mxCell>
        <mxCell id="dQtb5P0k24ia0JGGlsfE-50" value="state" style="text;html=1;align=center;verticalAlign=middle;whiteSpace=wrap;rounded=0;fillColor=#A8DADC;strokeColor=#457B9D;labelBackgroundColor=none;fontColor=#1D3557;" parent="1" vertex="1">
          <mxGeometry x="1464" y="353" width="60" height="30" as="geometry" />
        </mxCell>
        <mxCell id="dQtb5P0k24ia0JGGlsfE-52" value="" style="rhombus;whiteSpace=wrap;html=1;labelBackgroundColor=none;fillColor=#A8DADC;strokeColor=#457B9D;fontColor=#1D3557;" parent="1" vertex="1">
          <mxGeometry x="1880" y="-15" width="80" height="80" as="geometry" />
        </mxCell>
        <mxCell id="dQtb5P0k24ia0JGGlsfE-53" value="" style="endArrow=none;html=1;rounded=0;entryX=0;entryY=0.5;entryDx=0;entryDy=0;labelBackgroundColor=none;strokeColor=#457B9D;fontColor=default;" parent="1" source="dQtb5P0k24ia0JGGlsfE-52" target="dQtb5P0k24ia0JGGlsfE-23" edge="1">
          <mxGeometry width="50" height="50" relative="1" as="geometry">
            <mxPoint x="1960" y="75" as="sourcePoint" />
            <mxPoint x="2030.7106781186549" y="25" as="targetPoint" />
          </mxGeometry>
        </mxCell>
        <mxCell id="dQtb5P0k24ia0JGGlsfE-55" value="Assign" style="text;html=1;align=center;verticalAlign=middle;whiteSpace=wrap;rounded=0;labelBackgroundColor=none;fontColor=#1D3557;" parent="1" vertex="1">
          <mxGeometry x="1890" y="10" width="60" height="30" as="geometry" />
        </mxCell>
        <mxCell id="dQtb5P0k24ia0JGGlsfE-56" value="M" style="text;html=1;align=center;verticalAlign=middle;whiteSpace=wrap;rounded=0;labelBackgroundColor=none;fontColor=#1D3557;" parent="1" vertex="1">
          <mxGeometry x="2058" y="-10" width="60" height="30" as="geometry" />
        </mxCell>
        <mxCell id="dQtb5P0k24ia0JGGlsfE-57" value="1" style="text;html=1;align=center;verticalAlign=middle;whiteSpace=wrap;rounded=0;labelBackgroundColor=none;fontColor=#1D3557;" parent="1" vertex="1">
          <mxGeometry x="1745" y="-10" width="60" height="30" as="geometry" />
        </mxCell>
        <mxCell id="dQtb5P0k24ia0JGGlsfE-58" value="" style="endArrow=none;html=1;rounded=0;entryX=0;entryY=0.75;entryDx=0;entryDy=0;labelBackgroundColor=none;strokeColor=#457B9D;fontColor=default;exitX=0.883;exitY=0.629;exitDx=0;exitDy=0;exitPerimeter=0;" parent="1" source="dQtb5P0k24ia0JGGlsfE-52" target="dQtb5P0k24ia0JGGlsfE-23" edge="1">
          <mxGeometry width="50" height="50" relative="1" as="geometry">
            <mxPoint x="1960" y="35" as="sourcePoint" />
            <mxPoint x="2060" y="-40" as="targetPoint" />
          </mxGeometry>
        </mxCell>
        <mxCell id="L6swmxHSuRBG7cFLtKDO-1" value="" style="rhombus;whiteSpace=wrap;html=1;labelBackgroundColor=none;fillColor=#A8DADC;strokeColor=#457B9D;fontColor=#1D3557;" parent="1" vertex="1">
          <mxGeometry x="1880" y="80" width="80" height="80" as="geometry" />
        </mxCell>
        <mxCell id="L6swmxHSuRBG7cFLtKDO-2" value="" style="endArrow=none;html=1;rounded=0;entryX=0;entryY=1;entryDx=0;entryDy=0;exitX=1;exitY=0.5;exitDx=0;exitDy=0;labelBackgroundColor=none;strokeColor=#457B9D;fontColor=default;" parent="1" source="L6swmxHSuRBG7cFLtKDO-1" target="dQtb5P0k24ia0JGGlsfE-23" edge="1">
          <mxGeometry width="50" height="50" relative="1" as="geometry">
            <mxPoint x="1957" y="188" as="sourcePoint" />
            <mxPoint x="2112" y="138" as="targetPoint" />
          </mxGeometry>
        </mxCell>
        <mxCell id="L6swmxHSuRBG7cFLtKDO-3" value="" style="endArrow=none;html=1;rounded=0;entryX=1;entryY=1;entryDx=0;entryDy=0;exitX=0;exitY=0.5;exitDx=0;exitDy=0;labelBackgroundColor=none;strokeColor=#457B9D;fontColor=default;" parent="1" source="L6swmxHSuRBG7cFLtKDO-1" target="dQtb5P0k24ia0JGGlsfE-15" edge="1">
          <mxGeometry width="50" height="50" relative="1" as="geometry">
            <mxPoint x="1806.2893218813451" y="188" as="sourcePoint" />
            <mxPoint x="1742" y="138" as="targetPoint" />
          </mxGeometry>
        </mxCell>
        <mxCell id="L6swmxHSuRBG7cFLtKDO-4" value="Manage" style="text;html=1;align=center;verticalAlign=middle;whiteSpace=wrap;rounded=0;labelBackgroundColor=none;fontColor=#1D3557;" parent="1" vertex="1">
          <mxGeometry x="1890" y="105" width="60" height="30" as="geometry" />
        </mxCell>
        <mxCell id="L6swmxHSuRBG7cFLtKDO-5" value="1" style="text;html=1;align=center;verticalAlign=middle;whiteSpace=wrap;rounded=0;labelBackgroundColor=none;fontColor=#1D3557;" parent="1" vertex="1">
          <mxGeometry x="2080" y="55" width="60" height="30" as="geometry" />
        </mxCell>
        <mxCell id="L6swmxHSuRBG7cFLtKDO-6" value="1" style="text;html=1;align=center;verticalAlign=middle;whiteSpace=wrap;rounded=0;labelBackgroundColor=none;fontColor=#1D3557;" parent="1" vertex="1">
          <mxGeometry x="1705" y="50" width="60" height="30" as="geometry" />
        </mxCell>
        <mxCell id="L6swmxHSuRBG7cFLtKDO-8" value="" style="endArrow=none;html=1;rounded=0;entryX=1;entryY=0.75;entryDx=0;entryDy=0;labelBackgroundColor=none;strokeColor=#457B9D;fontColor=default;exitX=0.068;exitY=0.428;exitDx=0;exitDy=0;exitPerimeter=0;" parent="1" source="L6swmxHSuRBG7cFLtKDO-1" target="dQtb5P0k24ia0JGGlsfE-15" edge="1">
          <mxGeometry width="50" height="50" relative="1" as="geometry">
            <mxPoint x="1880" y="130" as="sourcePoint" />
            <mxPoint x="2070" y="50" as="targetPoint" />
          </mxGeometry>
        </mxCell>
        <mxCell id="L6swmxHSuRBG7cFLtKDO-9" value="" style="rhombus;whiteSpace=wrap;html=1;labelBackgroundColor=none;fillColor=#A8DADC;strokeColor=#457B9D;fontColor=#1D3557;" parent="1" vertex="1">
          <mxGeometry x="1640" y="123" width="80" height="80" as="geometry" />
        </mxCell>
        <mxCell id="L6swmxHSuRBG7cFLtKDO-10" value="" style="endArrow=none;html=1;rounded=0;entryX=0.598;entryY=-0.015;entryDx=0;entryDy=0;entryPerimeter=0;labelBackgroundColor=none;strokeColor=#457B9D;fontColor=default;" parent="1" source="L6swmxHSuRBG7cFLtKDO-9" target="dQtb5P0k24ia0JGGlsfE-31" edge="1">
          <mxGeometry width="50" height="50" relative="1" as="geometry">
            <mxPoint x="1680" y="253" as="sourcePoint" />
            <mxPoint x="1680" y="273.71067811865476" as="targetPoint" />
          </mxGeometry>
        </mxCell>
        <mxCell id="L6swmxHSuRBG7cFLtKDO-11" value="" style="endArrow=none;html=1;rounded=0;labelBackgroundColor=none;strokeColor=#457B9D;fontColor=default;entryX=0.453;entryY=0.978;entryDx=0;entryDy=0;entryPerimeter=0;" parent="1" source="L6swmxHSuRBG7cFLtKDO-9" target="dQtb5P0k24ia0JGGlsfE-15" edge="1">
          <mxGeometry width="50" height="50" relative="1" as="geometry">
            <mxPoint x="1680" y="102.28932188134524" as="sourcePoint" />
            <mxPoint x="1680" y="50" as="targetPoint" />
          </mxGeometry>
        </mxCell>
        <mxCell id="L6swmxHSuRBG7cFLtKDO-12" value="List" style="text;html=1;align=center;verticalAlign=middle;whiteSpace=wrap;rounded=0;labelBackgroundColor=none;fontColor=#1D3557;" parent="1" vertex="1">
          <mxGeometry x="1650" y="148" width="60" height="30" as="geometry" />
        </mxCell>
        <mxCell id="L6swmxHSuRBG7cFLtKDO-13" value="1" style="text;html=1;align=center;verticalAlign=middle;whiteSpace=wrap;rounded=0;labelBackgroundColor=none;fontColor=#1D3557;" parent="1" vertex="1">
          <mxGeometry x="1635" y="45" width="45" height="30" as="geometry" />
        </mxCell>
        <mxCell id="L6swmxHSuRBG7cFLtKDO-14" value="M" style="text;html=1;align=center;verticalAlign=middle;whiteSpace=wrap;rounded=0;labelBackgroundColor=none;fontColor=#1D3557;" parent="1" vertex="1">
          <mxGeometry x="1640" y="280" width="30" height="30" as="geometry" />
        </mxCell>
        <mxCell id="L6swmxHSuRBG7cFLtKDO-15" value="" style="endArrow=none;html=1;rounded=0;entryX=0.603;entryY=0.903;entryDx=0;entryDy=0;entryPerimeter=0;labelBackgroundColor=none;strokeColor=#457B9D;fontColor=default;exitX=0.676;exitY=-0.006;exitDx=0;exitDy=0;exitPerimeter=0;" parent="1" source="dQtb5P0k24ia0JGGlsfE-31" target="L6swmxHSuRBG7cFLtKDO-9" edge="1">
          <mxGeometry width="50" height="50" relative="1" as="geometry">
            <mxPoint x="1720" y="280" as="sourcePoint" />
            <mxPoint x="1730" y="197" as="targetPoint" />
          </mxGeometry>
        </mxCell>
        <mxCell id="L6swmxHSuRBG7cFLtKDO-16" value="" style="rounded=0;whiteSpace=wrap;html=1;fillColor=#A8DADC;strokeColor=#457B9D;shadow=0;labelBackgroundColor=none;fontColor=#1D3557;" parent="1" vertex="1">
          <mxGeometry x="2095" y="305" width="120" height="40" as="geometry" />
        </mxCell>
        <mxCell id="L6swmxHSuRBG7cFLtKDO-17" value="&lt;h1&gt;&lt;font style=&quot;font-size: 12px;&quot;&gt;Id&lt;/font&gt;&lt;/h1&gt;" style="ellipse;whiteSpace=wrap;html=1;fillColor=#A8DADC;strokeColor=#457B9D;shadow=0;labelBackgroundColor=none;fontColor=#1D3557;" parent="1" vertex="1">
          <mxGeometry x="2058" y="230" width="70" height="35" as="geometry" />
        </mxCell>
        <mxCell id="L6swmxHSuRBG7cFLtKDO-18" value="Name" style="ellipse;whiteSpace=wrap;html=1;fillColor=#A8DADC;strokeColor=#457B9D;shadow=0;labelBackgroundColor=none;fontColor=#1D3557;" parent="1" vertex="1">
          <mxGeometry x="2155" y="230" width="75" height="35" as="geometry" />
        </mxCell>
        <mxCell id="L6swmxHSuRBG7cFLtKDO-19" value="" style="endArrow=none;html=1;rounded=0;exitX=0;exitY=1;exitDx=0;exitDy=0;entryX=1;entryY=1;entryDx=0;entryDy=0;strokeColor=#457B9D;shadow=0;labelBackgroundColor=none;fontColor=default;" parent="1" source="L6swmxHSuRBG7cFLtKDO-17" target="L6swmxHSuRBG7cFLtKDO-17" edge="1">
          <mxGeometry width="50" height="50" relative="1" as="geometry">
            <mxPoint x="2063" y="295" as="sourcePoint" />
            <mxPoint x="2113" y="255" as="targetPoint" />
          </mxGeometry>
        </mxCell>
        <mxCell id="L6swmxHSuRBG7cFLtKDO-20" value="" style="endArrow=none;html=1;rounded=0;entryX=0.5;entryY=1;entryDx=0;entryDy=0;exitX=0.75;exitY=0;exitDx=0;exitDy=0;strokeColor=#457B9D;shadow=0;labelBackgroundColor=none;fontColor=default;" parent="1" source="L6swmxHSuRBG7cFLtKDO-16" target="L6swmxHSuRBG7cFLtKDO-18" edge="1">
          <mxGeometry width="50" height="50" relative="1" as="geometry">
            <mxPoint x="2125" y="305" as="sourcePoint" />
            <mxPoint x="2175" y="255" as="targetPoint" />
          </mxGeometry>
        </mxCell>
        <mxCell id="L6swmxHSuRBG7cFLtKDO-21" value="" style="endArrow=none;html=1;rounded=0;exitX=0.25;exitY=0;exitDx=0;exitDy=0;entryX=0.5;entryY=1;entryDx=0;entryDy=0;strokeColor=#457B9D;shadow=0;labelBackgroundColor=none;fontColor=default;" parent="1" source="L6swmxHSuRBG7cFLtKDO-16" target="L6swmxHSuRBG7cFLtKDO-17" edge="1">
          <mxGeometry width="50" height="50" relative="1" as="geometry">
            <mxPoint x="2005" y="315" as="sourcePoint" />
            <mxPoint x="2055" y="265" as="targetPoint" />
          </mxGeometry>
        </mxCell>
        <mxCell id="L6swmxHSuRBG7cFLtKDO-22" value="owner" style="text;html=1;align=center;verticalAlign=middle;whiteSpace=wrap;rounded=0;shadow=0;labelBackgroundColor=none;fontColor=#1D3557;" parent="1" vertex="1">
          <mxGeometry x="2120" y="310" width="60" height="30" as="geometry" />
        </mxCell>
        <mxCell id="L6swmxHSuRBG7cFLtKDO-23" value="M" style="text;html=1;align=center;verticalAlign=middle;whiteSpace=wrap;rounded=0;labelBackgroundColor=none;fontColor=#1D3557;" parent="1" vertex="1">
          <mxGeometry x="2038" y="290" width="60" height="30" as="geometry" />
        </mxCell>
        <mxCell id="L6swmxHSuRBG7cFLtKDO-24" value="M" style="text;html=1;align=center;verticalAlign=middle;whiteSpace=wrap;rounded=0;labelBackgroundColor=none;fontColor=#1D3557;" parent="1" vertex="1">
          <mxGeometry x="1720" y="300" width="60" height="30" as="geometry" />
        </mxCell>
        <mxCell id="L6swmxHSuRBG7cFLtKDO-25" value="" style="rhombus;whiteSpace=wrap;html=1;labelBackgroundColor=none;fillColor=#A8DADC;strokeColor=#457B9D;fontColor=#1D3557;" parent="1" vertex="1">
          <mxGeometry x="1860" y="285" width="80" height="80" as="geometry" />
        </mxCell>
        <mxCell id="L6swmxHSuRBG7cFLtKDO-26" value="" style="endArrow=none;html=1;rounded=0;entryX=1;entryY=0.5;entryDx=0;entryDy=0;labelBackgroundColor=none;strokeColor=#457B9D;fontColor=default;" parent="1" source="L6swmxHSuRBG7cFLtKDO-25" target="dQtb5P0k24ia0JGGlsfE-31" edge="1">
          <mxGeometry width="50" height="50" relative="1" as="geometry">
            <mxPoint x="1789.2893218813451" y="375" as="sourcePoint" />
            <mxPoint x="1789.2893218813451" y="325" as="targetPoint" />
          </mxGeometry>
        </mxCell>
        <mxCell id="L6swmxHSuRBG7cFLtKDO-27" value="" style="endArrow=none;html=1;rounded=0;entryX=0;entryY=0.5;entryDx=0;entryDy=0;labelBackgroundColor=none;strokeColor=#457B9D;fontColor=default;" parent="1" source="L6swmxHSuRBG7cFLtKDO-25" target="L6swmxHSuRBG7cFLtKDO-16" edge="1">
          <mxGeometry width="50" height="50" relative="1" as="geometry">
            <mxPoint x="1940" y="375" as="sourcePoint" />
            <mxPoint x="2010.7106781186549" y="325" as="targetPoint" />
          </mxGeometry>
        </mxCell>
        <mxCell id="L6swmxHSuRBG7cFLtKDO-28" value="Has" style="text;html=1;align=center;verticalAlign=middle;whiteSpace=wrap;rounded=0;labelBackgroundColor=none;fontColor=#1D3557;" parent="1" vertex="1">
          <mxGeometry x="1870" y="310" width="60" height="30" as="geometry" />
        </mxCell>
        <mxCell id="L6swmxHSuRBG7cFLtKDO-30" value="" style="endArrow=none;html=1;rounded=0;labelBackgroundColor=none;strokeColor=#457B9D;fontColor=default;entryX=0.5;entryY=0;entryDx=0;entryDy=0;" parent="1" source="L6swmxHSuRBG7cFLtKDO-25" target="L6swmxHSuRBG7cFLtKDO-31" edge="1">
          <mxGeometry width="50" height="50" relative="1" as="geometry">
            <mxPoint x="1900" y="415" as="sourcePoint" />
            <mxPoint x="1900" y="435.71067811865476" as="targetPoint" />
          </mxGeometry>
        </mxCell>
        <mxCell id="L6swmxHSuRBG7cFLtKDO-31" value="" style="ellipse;whiteSpace=wrap;html=1;labelBackgroundColor=none;fillColor=#A8DADC;strokeColor=#457B9D;fontColor=#1D3557;" parent="1" vertex="1">
          <mxGeometry x="1860" y="390" width="80" height="40" as="geometry" />
        </mxCell>
        <mxCell id="L6swmxHSuRBG7cFLtKDO-32" value="Owned" style="text;html=1;align=center;verticalAlign=middle;whiteSpace=wrap;rounded=0;labelBackgroundColor=none;fontColor=#1D3557;" parent="1" vertex="1">
          <mxGeometry x="1870" y="395" width="60" height="30" as="geometry" />
        </mxCell>
        <mxCell id="L6swmxHSuRBG7cFLtKDO-33" value="" style="endArrow=none;html=1;rounded=0;entryX=-0.007;entryY=0.688;entryDx=0;entryDy=0;labelBackgroundColor=none;strokeColor=#457B9D;fontColor=default;entryPerimeter=0;exitX=0.894;exitY=0.611;exitDx=0;exitDy=0;exitPerimeter=0;" parent="1" source="L6swmxHSuRBG7cFLtKDO-25" target="L6swmxHSuRBG7cFLtKDO-16" edge="1">
          <mxGeometry width="50" height="50" relative="1" as="geometry">
            <mxPoint x="1940" y="333" as="sourcePoint" />
            <mxPoint x="2060" y="340" as="targetPoint" />
          </mxGeometry>
        </mxCell>
        <mxCell id="L6swmxHSuRBG7cFLtKDO-34" value="&lt;span style=&quot;font-family: &amp;quot;Times New Roman&amp;quot;, serif;&quot;&gt;&lt;font style=&quot;font-size: 48px;&quot;&gt;problem3&lt;/font&gt;&lt;/span&gt;" style="text;html=1;align=center;verticalAlign=middle;whiteSpace=wrap;rounded=0;labelBackgroundColor=none;fontColor=#1D3557;" parent="1" vertex="1">
          <mxGeometry x="47.5" y="860" width="252.5" height="90" as="geometry" />
        </mxCell>
        <mxCell id="L6swmxHSuRBG7cFLtKDO-35" value="" style="rounded=0;whiteSpace=wrap;html=1;fillColor=#A8DADC;strokeColor=#457B9D;shadow=0;labelBackgroundColor=none;fontColor=#1D3557;" parent="1" vertex="1">
          <mxGeometry x="-202.5" y="1085.5" width="120" height="40" as="geometry" />
        </mxCell>
        <mxCell id="L6swmxHSuRBG7cFLtKDO-36" value="&lt;h1&gt;&lt;font style=&quot;font-size: 12px;&quot;&gt;Id&lt;/font&gt;&lt;/h1&gt;" style="ellipse;whiteSpace=wrap;html=1;fillColor=#A8DADC;strokeColor=#457B9D;shadow=0;labelBackgroundColor=none;fontColor=#1D3557;" parent="1" vertex="1">
          <mxGeometry x="-267.5" y="1021.5" width="72.5" height="30" as="geometry" />
        </mxCell>
        <mxCell id="L6swmxHSuRBG7cFLtKDO-37" value="Name" style="ellipse;whiteSpace=wrap;html=1;fillColor=#A8DADC;strokeColor=#457B9D;shadow=0;labelBackgroundColor=none;fontColor=#1D3557;" parent="1" vertex="1">
          <mxGeometry x="-172.5" y="1015.5" width="77.5" height="30" as="geometry" />
        </mxCell>
        <mxCell id="L6swmxHSuRBG7cFLtKDO-39" value="" style="endArrow=none;html=1;rounded=0;exitX=0;exitY=1;exitDx=0;exitDy=0;entryX=1;entryY=1;entryDx=0;entryDy=0;strokeColor=#457B9D;shadow=0;labelBackgroundColor=none;fontColor=default;" parent="1" source="L6swmxHSuRBG7cFLtKDO-36" target="L6swmxHSuRBG7cFLtKDO-36" edge="1">
          <mxGeometry width="50" height="50" relative="1" as="geometry">
            <mxPoint x="-242.5" y="1045.5" as="sourcePoint" />
            <mxPoint x="-192.5" y="1005.5" as="targetPoint" />
          </mxGeometry>
        </mxCell>
        <mxCell id="L6swmxHSuRBG7cFLtKDO-45" value="" style="endArrow=none;html=1;rounded=0;exitX=0.5;exitY=0;exitDx=0;exitDy=0;entryX=0.5;entryY=1;entryDx=0;entryDy=0;strokeColor=#457B9D;shadow=0;labelBackgroundColor=none;fontColor=default;" parent="1" source="L6swmxHSuRBG7cFLtKDO-35" target="L6swmxHSuRBG7cFLtKDO-37" edge="1">
          <mxGeometry width="50" height="50" relative="1" as="geometry">
            <mxPoint x="-92.5" y="1095.5" as="sourcePoint" />
            <mxPoint x="-42.5" y="1045.5" as="targetPoint" />
          </mxGeometry>
        </mxCell>
        <mxCell id="L6swmxHSuRBG7cFLtKDO-46" value="" style="endArrow=none;html=1;rounded=0;exitX=0.25;exitY=0;exitDx=0;exitDy=0;entryX=1;entryY=1;entryDx=0;entryDy=0;strokeColor=#457B9D;shadow=0;labelBackgroundColor=none;fontColor=default;" parent="1" source="L6swmxHSuRBG7cFLtKDO-35" target="L6swmxHSuRBG7cFLtKDO-36" edge="1">
          <mxGeometry width="50" height="50" relative="1" as="geometry">
            <mxPoint x="-292.5" y="1095.5" as="sourcePoint" />
            <mxPoint x="-242.5" y="1045.5" as="targetPoint" />
          </mxGeometry>
        </mxCell>
        <mxCell id="L6swmxHSuRBG7cFLtKDO-50" value="ward" style="text;html=1;align=center;verticalAlign=middle;whiteSpace=wrap;rounded=0;shadow=0;labelBackgroundColor=none;fontColor=#1D3557;" parent="1" vertex="1">
          <mxGeometry x="-177.5" y="1090.5" width="60" height="30" as="geometry" />
        </mxCell>
        <mxCell id="L6swmxHSuRBG7cFLtKDO-52" value="" style="rounded=0;whiteSpace=wrap;html=1;fillColor=#A8DADC;strokeColor=#457B9D;shadow=0;labelBackgroundColor=none;fontColor=#1D3557;" parent="1" vertex="1">
          <mxGeometry x="185" y="1080.5" width="120" height="40" as="geometry" />
        </mxCell>
        <mxCell id="L6swmxHSuRBG7cFLtKDO-53" value="&lt;h1&gt;&lt;font style=&quot;font-size: 12px;&quot;&gt;Id&lt;/font&gt;&lt;/h1&gt;" style="ellipse;whiteSpace=wrap;html=1;fillColor=#A8DADC;strokeColor=#457B9D;shadow=0;labelBackgroundColor=none;fontColor=#1D3557;" parent="1" vertex="1">
          <mxGeometry x="125.5" y="1006.5" width="81.5" height="40" as="geometry" />
        </mxCell>
        <mxCell id="L6swmxHSuRBG7cFLtKDO-54" value="Name" style="ellipse;whiteSpace=wrap;html=1;fillColor=#A8DADC;strokeColor=#457B9D;shadow=0;labelBackgroundColor=none;fontColor=#1D3557;" parent="1" vertex="1">
          <mxGeometry x="277" y="1006.5" width="72.5" height="30" as="geometry" />
        </mxCell>
        <mxCell id="L6swmxHSuRBG7cFLtKDO-55" value="" style="endArrow=none;html=1;rounded=0;exitX=0;exitY=1;exitDx=0;exitDy=0;entryX=1;entryY=1;entryDx=0;entryDy=0;strokeColor=#457B9D;shadow=0;labelBackgroundColor=none;fontColor=default;" parent="1" source="L6swmxHSuRBG7cFLtKDO-53" target="L6swmxHSuRBG7cFLtKDO-53" edge="1">
          <mxGeometry width="50" height="50" relative="1" as="geometry">
            <mxPoint x="129.5" y="1086.5" as="sourcePoint" />
            <mxPoint x="179.5" y="1046.5" as="targetPoint" />
          </mxGeometry>
        </mxCell>
        <mxCell id="L6swmxHSuRBG7cFLtKDO-56" value="" style="endArrow=none;html=1;rounded=0;exitX=0.75;exitY=0;exitDx=0;exitDy=0;entryX=0.5;entryY=1;entryDx=0;entryDy=0;strokeColor=#457B9D;shadow=0;labelBackgroundColor=none;fontColor=default;" parent="1" source="L6swmxHSuRBG7cFLtKDO-52" target="L6swmxHSuRBG7cFLtKDO-54" edge="1">
          <mxGeometry width="50" height="50" relative="1" as="geometry">
            <mxPoint x="297.5" y="955.5" as="sourcePoint" />
            <mxPoint x="347.5" y="905.5" as="targetPoint" />
          </mxGeometry>
        </mxCell>
        <mxCell id="L6swmxHSuRBG7cFLtKDO-57" value="" style="endArrow=none;html=1;rounded=0;exitX=0.25;exitY=0;exitDx=0;exitDy=0;entryX=0.5;entryY=1;entryDx=0;entryDy=0;strokeColor=#457B9D;shadow=0;labelBackgroundColor=none;fontColor=default;" parent="1" source="L6swmxHSuRBG7cFLtKDO-52" target="L6swmxHSuRBG7cFLtKDO-53" edge="1">
          <mxGeometry width="50" height="50" relative="1" as="geometry">
            <mxPoint x="97.5" y="955.5" as="sourcePoint" />
            <mxPoint x="147.5" y="905.5" as="targetPoint" />
          </mxGeometry>
        </mxCell>
        <mxCell id="L6swmxHSuRBG7cFLtKDO-58" value="patient" style="text;html=1;align=center;verticalAlign=middle;whiteSpace=wrap;rounded=0;shadow=0;labelBackgroundColor=none;fontColor=#1D3557;" parent="1" vertex="1">
          <mxGeometry x="210" y="1085.5" width="60" height="30" as="geometry" />
        </mxCell>
        <mxCell id="L6swmxHSuRBG7cFLtKDO-59" value="B.D" style="ellipse;whiteSpace=wrap;html=1;fillColor=#A8DADC;strokeColor=#457B9D;shadow=0;labelBackgroundColor=none;fontColor=#1D3557;" parent="1" vertex="1">
          <mxGeometry x="199.5" y="986.5" width="82.5" height="30" as="geometry" />
        </mxCell>
        <mxCell id="L6swmxHSuRBG7cFLtKDO-60" value="" style="endArrow=none;html=1;rounded=0;exitX=0.5;exitY=0;exitDx=0;exitDy=0;entryX=0.5;entryY=1;entryDx=0;entryDy=0;strokeColor=#457B9D;shadow=0;labelBackgroundColor=none;fontColor=default;" parent="1" source="L6swmxHSuRBG7cFLtKDO-52" target="L6swmxHSuRBG7cFLtKDO-59" edge="1">
          <mxGeometry width="50" height="50" relative="1" as="geometry">
            <mxPoint x="197.5" y="885.5" as="sourcePoint" />
            <mxPoint x="257.5" y="835.5" as="targetPoint" />
          </mxGeometry>
        </mxCell>
        <mxCell id="L6swmxHSuRBG7cFLtKDO-62" value="" style="rhombus;whiteSpace=wrap;html=1;labelBackgroundColor=none;fillColor=#A8DADC;strokeColor=#457B9D;fontColor=#1D3557;" parent="1" vertex="1">
          <mxGeometry x="20" y="1060.5" width="80" height="80" as="geometry" />
        </mxCell>
        <mxCell id="L6swmxHSuRBG7cFLtKDO-63" value="" style="endArrow=none;html=1;rounded=0;exitX=1;exitY=0.5;exitDx=0;exitDy=0;entryX=0.001;entryY=0.624;entryDx=0;entryDy=0;labelBackgroundColor=none;strokeColor=#457B9D;fontColor=default;entryPerimeter=0;" parent="1" source="L6swmxHSuRBG7cFLtKDO-62" target="L6swmxHSuRBG7cFLtKDO-52" edge="1">
          <mxGeometry width="50" height="50" relative="1" as="geometry">
            <mxPoint x="107.5" y="1005.5" as="sourcePoint" />
            <mxPoint x="157.5" y="955.5" as="targetPoint" />
          </mxGeometry>
        </mxCell>
        <mxCell id="L6swmxHSuRBG7cFLtKDO-64" value="" style="endArrow=none;html=1;rounded=0;exitX=1;exitY=0.5;exitDx=0;exitDy=0;entryX=0;entryY=0.5;entryDx=0;entryDy=0;labelBackgroundColor=none;strokeColor=#457B9D;fontColor=default;" parent="1" source="L6swmxHSuRBG7cFLtKDO-35" target="L6swmxHSuRBG7cFLtKDO-62" edge="1">
          <mxGeometry width="50" height="50" relative="1" as="geometry">
            <mxPoint x="-87.5" y="1085.5" as="sourcePoint" />
            <mxPoint x="17.5" y="1045.5" as="targetPoint" />
          </mxGeometry>
        </mxCell>
        <mxCell id="L6swmxHSuRBG7cFLtKDO-65" value="Text" style="text;html=1;align=center;verticalAlign=middle;whiteSpace=wrap;rounded=0;labelBackgroundColor=none;fontColor=#1D3557;" parent="1" vertex="1">
          <mxGeometry x="30" y="1085.5" width="60" height="30" as="geometry" />
        </mxCell>
        <mxCell id="L6swmxHSuRBG7cFLtKDO-66" value="M&lt;span style=&quot;color: rgba(0, 0, 0, 0); font-family: monospace; font-size: 0px; text-align: start; text-wrap-mode: nowrap;&quot;&gt;%3CmxGraphModel%3E%3Croot%3E%3CmxCell%20id%3D%220%22%2F%3E%3CmxCell%20id%3D%221%22%20parent%3D%220%22%2F%3E%3CmxCell%20id%3D%222%22%20value%3D%22%22%20style%3D%22endArrow%3Dnone%3Bhtml%3D1%3Brounded%3D0%3BexitX%3D1%3BexitY%3D0.5%3BexitDx%3D0%3BexitDy%3D0%3BentryX%3D0%3BentryY%3D0.5%3BentryDx%3D0%3BentryDy%3D0%3B%22%20edge%3D%221%22%20parent%3D%221%22%3E%3CmxGeometry%20width%3D%2250%22%20height%3D%2250%22%20relative%3D%221%22%20as%3D%22geometry%22%3E%3CmxPoint%20x%3D%22645%22%20y%3D%22980%22%20as%3D%22sourcePoint%22%2F%3E%3CmxPoint%20x%3D%22750%22%20y%3D%22940%22%20as%3D%22targetPoint%22%2F%3E%3C%2FmxGeometry%3E%3C%2FmxCell%3E%3C%2Froot%3E%3C%2FmxGraphModel%3E&lt;/span&gt;" style="text;html=1;align=center;verticalAlign=middle;whiteSpace=wrap;rounded=0;labelBackgroundColor=none;fontColor=#1D3557;" parent="1" vertex="1">
          <mxGeometry x="162.5" y="1088.5" width="22.5" height="10" as="geometry" />
        </mxCell>
        <mxCell id="L6swmxHSuRBG7cFLtKDO-67" value="1" style="text;html=1;align=center;verticalAlign=middle;whiteSpace=wrap;rounded=0;labelBackgroundColor=none;fontColor=#1D3557;" parent="1" vertex="1">
          <mxGeometry x="-102.5" y="1055.5" width="40" height="20" as="geometry" />
        </mxCell>
        <mxCell id="L6swmxHSuRBG7cFLtKDO-68" value="" style="rounded=0;whiteSpace=wrap;html=1;fillColor=#A8DADC;strokeColor=#457B9D;shadow=0;labelBackgroundColor=none;fontColor=#1D3557;" parent="1" vertex="1">
          <mxGeometry x="527.5" y="1075.5" width="120" height="40" as="geometry" />
        </mxCell>
        <mxCell id="L6swmxHSuRBG7cFLtKDO-69" value="&lt;h1&gt;&lt;font style=&quot;font-size: 12px;&quot;&gt;Id&lt;/font&gt;&lt;/h1&gt;" style="ellipse;whiteSpace=wrap;html=1;fillColor=#A8DADC;strokeColor=#457B9D;shadow=0;labelBackgroundColor=none;fontColor=#1D3557;" parent="1" vertex="1">
          <mxGeometry x="505" y="985.5" width="76.25" height="30" as="geometry" />
        </mxCell>
        <mxCell id="L6swmxHSuRBG7cFLtKDO-70" value="Name" style="ellipse;whiteSpace=wrap;html=1;fillColor=#A8DADC;strokeColor=#457B9D;shadow=0;labelBackgroundColor=none;fontColor=#1D3557;" parent="1" vertex="1">
          <mxGeometry x="595" y="985" width="77.5" height="30" as="geometry" />
        </mxCell>
        <mxCell id="L6swmxHSuRBG7cFLtKDO-71" value="" style="endArrow=none;html=1;rounded=0;exitX=0;exitY=1;exitDx=0;exitDy=0;entryX=1;entryY=1;entryDx=0;entryDy=0;strokeColor=#457B9D;shadow=0;labelBackgroundColor=none;fontColor=default;" parent="1" source="L6swmxHSuRBG7cFLtKDO-69" target="L6swmxHSuRBG7cFLtKDO-69" edge="1">
          <mxGeometry width="50" height="50" relative="1" as="geometry">
            <mxPoint x="487.5" y="1035.5" as="sourcePoint" />
            <mxPoint x="537.5" y="995.5" as="targetPoint" />
          </mxGeometry>
        </mxCell>
        <mxCell id="L6swmxHSuRBG7cFLtKDO-72" value="" style="endArrow=none;html=1;rounded=0;exitX=0.75;exitY=0;exitDx=0;exitDy=0;entryX=0.5;entryY=1;entryDx=0;entryDy=0;strokeColor=#457B9D;shadow=0;labelBackgroundColor=none;fontColor=default;" parent="1" source="L6swmxHSuRBG7cFLtKDO-68" target="L6swmxHSuRBG7cFLtKDO-70" edge="1">
          <mxGeometry width="50" height="50" relative="1" as="geometry">
            <mxPoint x="637.5" y="1085.5" as="sourcePoint" />
            <mxPoint x="687.5" y="1035.5" as="targetPoint" />
          </mxGeometry>
        </mxCell>
        <mxCell id="L6swmxHSuRBG7cFLtKDO-73" value="" style="endArrow=none;html=1;rounded=0;exitX=0.25;exitY=0;exitDx=0;exitDy=0;entryX=0.5;entryY=1;entryDx=0;entryDy=0;strokeColor=#457B9D;shadow=0;labelBackgroundColor=none;fontColor=default;" parent="1" source="L6swmxHSuRBG7cFLtKDO-68" target="L6swmxHSuRBG7cFLtKDO-69" edge="1">
          <mxGeometry width="50" height="50" relative="1" as="geometry">
            <mxPoint x="437.5" y="1085.5" as="sourcePoint" />
            <mxPoint x="487.5" y="1035.5" as="targetPoint" />
          </mxGeometry>
        </mxCell>
        <mxCell id="L6swmxHSuRBG7cFLtKDO-74" value="consultant" style="text;html=1;align=center;verticalAlign=middle;whiteSpace=wrap;rounded=0;shadow=0;labelBackgroundColor=none;fontColor=#1D3557;" parent="1" vertex="1">
          <mxGeometry x="552.5" y="1080.5" width="60" height="30" as="geometry" />
        </mxCell>
        <mxCell id="L6swmxHSuRBG7cFLtKDO-77" value="M" style="text;html=1;align=center;verticalAlign=middle;whiteSpace=wrap;rounded=0;labelBackgroundColor=none;fontColor=#1D3557;" parent="1" vertex="1">
          <mxGeometry x="305" y="1075.5" width="20" height="10" as="geometry" />
        </mxCell>
        <mxCell id="L6swmxHSuRBG7cFLtKDO-78" value="" style="rhombus;whiteSpace=wrap;html=1;labelBackgroundColor=none;fillColor=#A8DADC;strokeColor=#457B9D;fontColor=#1D3557;" parent="1" vertex="1">
          <mxGeometry x="375" y="1027.5" width="67.5" height="66" as="geometry" />
        </mxCell>
        <mxCell id="L6swmxHSuRBG7cFLtKDO-79" value="" style="endArrow=none;html=1;rounded=0;exitX=1;exitY=0.25;exitDx=0;exitDy=0;entryX=0;entryY=0.5;entryDx=0;entryDy=0;labelBackgroundColor=none;strokeColor=#457B9D;fontColor=default;" parent="1" source="L6swmxHSuRBG7cFLtKDO-52" target="L6swmxHSuRBG7cFLtKDO-78" edge="1">
          <mxGeometry width="50" height="50" relative="1" as="geometry">
            <mxPoint x="257.5" y="1075.5" as="sourcePoint" />
            <mxPoint x="307.5" y="1025.5" as="targetPoint" />
            <Array as="points" />
          </mxGeometry>
        </mxCell>
        <mxCell id="L6swmxHSuRBG7cFLtKDO-80" value="" style="endArrow=none;html=1;rounded=0;entryX=0;entryY=0.25;entryDx=0;entryDy=0;exitX=1;exitY=0.5;exitDx=0;exitDy=0;labelBackgroundColor=none;strokeColor=#457B9D;fontColor=default;" parent="1" source="L6swmxHSuRBG7cFLtKDO-78" target="L6swmxHSuRBG7cFLtKDO-68" edge="1">
          <mxGeometry width="50" height="50" relative="1" as="geometry">
            <mxPoint x="407.5" y="1115.5" as="sourcePoint" />
            <mxPoint x="478.21067811865487" y="1065.5" as="targetPoint" />
          </mxGeometry>
        </mxCell>
        <mxCell id="L6swmxHSuRBG7cFLtKDO-81" value="assign" style="text;html=1;align=center;verticalAlign=middle;whiteSpace=wrap;rounded=0;labelBackgroundColor=none;fontColor=#1D3557;" parent="1" vertex="1">
          <mxGeometry x="385.63" y="1050.5" width="46.25" height="20" as="geometry" />
        </mxCell>
        <mxCell id="L6swmxHSuRBG7cFLtKDO-82" value="1&lt;span style=&quot;color: rgba(0, 0, 0, 0); font-family: monospace; font-size: 0px; text-align: start; text-wrap-mode: nowrap;&quot;&gt;%3CmxGraphModel%3E%3Croot%3E%3CmxCell%20id%3D%220%22%2F%3E%3CmxCell%20id%3D%221%22%20parent%3D%220%22%2F%3E%3CmxCell%20id%3D%222%22%20value%3D%22assign%22%20style%3D%22text%3Bhtml%3D1%3Balign%3Dcenter%3BverticalAlign%3Dmiddle%3BwhiteSpace%3Dwrap%3Brounded%3D0%3B%22%20vertex%3D%221%22%20parent%3D%221%22%3E%3CmxGeometry%20x%3D%22930%22%20y%3D%22985%22%20width%3D%2260%22%20height%3D%2230%22%20as%3D%22geometry%22%2F%3E%3C%2FmxCell%3E%3C%2Froot%3E%3C%2FmxGraphModel%3E&lt;/span&gt;" style="text;html=1;align=center;verticalAlign=middle;whiteSpace=wrap;rounded=0;labelBackgroundColor=none;fontColor=#1D3557;" parent="1" vertex="1">
          <mxGeometry x="515" y="1065.5" width="10" height="15" as="geometry" />
        </mxCell>
        <mxCell id="L6swmxHSuRBG7cFLtKDO-83" value="" style="endArrow=none;html=1;rounded=0;exitX=0.933;exitY=0.44;exitDx=0;exitDy=0;exitPerimeter=0;labelBackgroundColor=none;strokeColor=#457B9D;fontColor=default;entryX=0;entryY=0.5;entryDx=0;entryDy=0;" parent="1" source="L6swmxHSuRBG7cFLtKDO-62" target="L6swmxHSuRBG7cFLtKDO-52" edge="1">
          <mxGeometry width="50" height="50" relative="1" as="geometry">
            <mxPoint x="87.5" y="1015.5" as="sourcePoint" />
            <mxPoint x="175" y="985.5" as="targetPoint" />
          </mxGeometry>
        </mxCell>
        <mxCell id="L6swmxHSuRBG7cFLtKDO-84" value="" style="rhombus;whiteSpace=wrap;html=1;labelBackgroundColor=none;fillColor=#A8DADC;strokeColor=#457B9D;fontColor=#1D3557;" parent="1" vertex="1">
          <mxGeometry x="378.75" y="1120.5" width="60" height="60" as="geometry" />
        </mxCell>
        <mxCell id="L6swmxHSuRBG7cFLtKDO-85" value="" style="endArrow=none;html=1;rounded=0;exitX=0;exitY=0.5;exitDx=0;exitDy=0;entryX=1;entryY=0.75;entryDx=0;entryDy=0;labelBackgroundColor=none;strokeColor=#457B9D;fontColor=default;" parent="1" source="L6swmxHSuRBG7cFLtKDO-84" target="L6swmxHSuRBG7cFLtKDO-52" edge="1">
          <mxGeometry width="50" height="50" relative="1" as="geometry">
            <mxPoint x="247.5" y="1115.5" as="sourcePoint" />
            <mxPoint x="217.5" y="1105.5" as="targetPoint" />
          </mxGeometry>
        </mxCell>
        <mxCell id="L6swmxHSuRBG7cFLtKDO-87" value="" style="endArrow=none;html=1;rounded=0;exitX=1;exitY=0.5;exitDx=0;exitDy=0;entryX=0;entryY=0.75;entryDx=0;entryDy=0;labelBackgroundColor=none;strokeColor=#457B9D;fontColor=default;" parent="1" source="L6swmxHSuRBG7cFLtKDO-84" target="L6swmxHSuRBG7cFLtKDO-68" edge="1">
          <mxGeometry width="50" height="50" relative="1" as="geometry">
            <mxPoint x="417.5" y="1155.5" as="sourcePoint" />
            <mxPoint x="467.5" y="1105.5" as="targetPoint" />
          </mxGeometry>
        </mxCell>
        <mxCell id="L6swmxHSuRBG7cFLtKDO-88" value="examen" style="text;html=1;align=center;verticalAlign=middle;whiteSpace=wrap;rounded=0;labelBackgroundColor=none;fontColor=#1D3557;" parent="1" vertex="1">
          <mxGeometry x="388.44000000000005" y="1143" width="40.63" height="15" as="geometry" />
        </mxCell>
        <mxCell id="L6swmxHSuRBG7cFLtKDO-89" value="M" style="text;html=1;align=center;verticalAlign=middle;whiteSpace=wrap;rounded=0;labelBackgroundColor=none;fontColor=#1D3557;" parent="1" vertex="1">
          <mxGeometry x="515" y="1115.5" width="20" height="10" as="geometry" />
        </mxCell>
        <mxCell id="L6swmxHSuRBG7cFLtKDO-90" value="M" style="text;html=1;align=center;verticalAlign=middle;whiteSpace=wrap;rounded=0;labelBackgroundColor=none;fontColor=#1D3557;" parent="1" vertex="1">
          <mxGeometry x="303.25" y="1115.5" width="20" height="15" as="geometry" />
        </mxCell>
        <mxCell id="L6swmxHSuRBG7cFLtKDO-93" value="" style="rounded=0;whiteSpace=wrap;html=1;fillColor=#A8DADC;strokeColor=#457B9D;shadow=0;labelBackgroundColor=none;fontColor=#1D3557;" parent="1" vertex="1">
          <mxGeometry x="-212.5" y="1405.5" width="120" height="40" as="geometry" />
        </mxCell>
        <mxCell id="L6swmxHSuRBG7cFLtKDO-94" value="&lt;h1&gt;&lt;span style=&quot;font-size: 12px;&quot;&gt;Number&lt;/span&gt;&lt;/h1&gt;" style="ellipse;whiteSpace=wrap;html=1;fillColor=#A8DADC;strokeColor=#457B9D;shadow=0;labelBackgroundColor=none;fontColor=#1D3557;" parent="1" vertex="1">
          <mxGeometry x="-267.5" y="1480.5" width="72.5" height="30" as="geometry" />
        </mxCell>
        <mxCell id="L6swmxHSuRBG7cFLtKDO-95" value="Name" style="ellipse;whiteSpace=wrap;html=1;fillColor=#A8DADC;strokeColor=#457B9D;shadow=0;labelBackgroundColor=none;fontColor=#1D3557;" parent="1" vertex="1">
          <mxGeometry x="-187.5" y="1485.5" width="70" height="30" as="geometry" />
        </mxCell>
        <mxCell id="L6swmxHSuRBG7cFLtKDO-96" value="" style="endArrow=none;html=1;rounded=0;exitX=0;exitY=1;exitDx=0;exitDy=0;entryX=1;entryY=1;entryDx=0;entryDy=0;strokeColor=#457B9D;shadow=0;labelBackgroundColor=none;fontColor=default;" parent="1" source="L6swmxHSuRBG7cFLtKDO-94" target="L6swmxHSuRBG7cFLtKDO-94" edge="1">
          <mxGeometry width="50" height="50" relative="1" as="geometry">
            <mxPoint x="-252.5" y="1365.5" as="sourcePoint" />
            <mxPoint x="-202.5" y="1325.5" as="targetPoint" />
          </mxGeometry>
        </mxCell>
        <mxCell id="L6swmxHSuRBG7cFLtKDO-99" value="nurse&lt;span style=&quot;color: rgba(0, 0, 0, 0); font-family: monospace; font-size: 0px; text-align: start; text-wrap-mode: nowrap;&quot;&gt;%3CmxGraphModel%3E%3Croot%3E%3CmxCell%20id%3D%220%22%2F%3E%3CmxCell%20id%3D%221%22%20parent%3D%220%22%2F%3E%3CmxCell%20id%3D%222%22%20value%3D%22%22%20style%3D%22rounded%3D0%3BwhiteSpace%3Dwrap%3Bhtml%3D1%3BfillColor%3D%23ffe6cc%3BstrokeColor%3D%23d79b00%3Bshadow%3D0%3B%22%20vertex%3D%221%22%20parent%3D%221%22%3E%3CmxGeometry%20x%3D%22360%22%20y%3D%221060%22%20width%3D%22120%22%20height%3D%2240%22%20as%3D%22geometry%22%2F%3E%3C%2FmxCell%3E%3CmxCell%20id%3D%223%22%20value%3D%22%26lt%3Bh1%26gt%3B%26lt%3Bfont%20style%3D%26quot%3Bfont-size%3A%2012px%3B%26quot%3B%26gt%3Bward_id%26lt%3B%2Ffont%26gt%3B%26lt%3B%2Fh1%26gt%3B%22%20style%3D%22ellipse%3BwhiteSpace%3Dwrap%3Bhtml%3D1%3BfillColor%3D%23ffe6cc%3BstrokeColor%3D%23d79b00%3Bshadow%3D0%3B%22%20vertex%3D%221%22%20parent%3D%221%22%3E%3CmxGeometry%20x%3D%22260%22%20y%3D%22940%22%20width%3D%22110%22%20height%3D%2250%22%20as%3D%22geometry%22%2F%3E%3C%2FmxCell%3E%3CmxCell%20id%3D%224%22%20value%3D%22ward_name%22%20style%3D%22ellipse%3BwhiteSpace%3Dwrap%3Bhtml%3D1%3BfillColor%3D%23ffe6cc%3BstrokeColor%3D%23d79b00%3Bshadow%3D0%3B%22%20vertex%3D%221%22%20parent%3D%221%22%3E%3CmxGeometry%20x%3D%22385%22%20y%3D%22910%22%20width%3D%22110%22%20height%3D%2250%22%20as%3D%22geometry%22%2F%3E%3C%2FmxCell%3E%3CmxCell%20id%3D%225%22%20value%3D%22%22%20style%3D%22endArrow%3Dnone%3Bhtml%3D1%3Brounded%3D0%3BexitX%3D0%3BexitY%3D1%3BexitDx%3D0%3BexitDy%3D0%3BentryX%3D1%3BentryY%3D1%3BentryDx%3D0%3BentryDy%3D0%3BfillColor%3D%23ffe6cc%3BstrokeColor%3D%23d79b00%3Bshadow%3D0%3B%22%20edge%3D%221%22%20source%3D%223%22%20target%3D%223%22%20parent%3D%221%22%3E%3CmxGeometry%20width%3D%2250%22%20height%3D%2250%22%20relative%3D%221%22%20as%3D%22geometry%22%3E%3CmxPoint%20x%3D%22320%22%20y%3D%221020%22%20as%3D%22sourcePoint%22%2F%3E%3CmxPoint%20x%3D%22370%22%20y%3D%22980%22%20as%3D%22targetPoint%22%2F%3E%3C%2FmxGeometry%3E%3C%2FmxCell%3E%3CmxCell%20id%3D%226%22%20value%3D%22%22%20style%3D%22endArrow%3Dnone%3Bhtml%3D1%3Brounded%3D0%3BexitX%3D0.75%3BexitY%3D0%3BexitDx%3D0%3BexitDy%3D0%3BentryX%3D0.5%3BentryY%3D1%3BentryDx%3D0%3BentryDy%3D0%3BfillColor%3D%23ffe6cc%3BstrokeColor%3D%23d79b00%3Bshadow%3D0%3B%22%20edge%3D%221%22%20source%3D%222%22%20target%3D%224%22%20parent%3D%221%22%3E%3CmxGeometry%20width%3D%2250%22%20height%3D%2250%22%20relative%3D%221%22%20as%3D%22geometry%22%3E%3CmxPoint%20x%3D%22470%22%20y%3D%221070%22%20as%3D%22sourcePoint%22%2F%3E%3CmxPoint%20x%3D%22520%22%20y%3D%221020%22%20as%3D%22targetPoint%22%2F%3E%3C%2FmxGeometry%3E%3C%2FmxCell%3E%3CmxCell%20id%3D%227%22%20value%3D%22%22%20style%3D%22endArrow%3Dnone%3Bhtml%3D1%3Brounded%3D0%3BexitX%3D0.25%3BexitY%3D0%3BexitDx%3D0%3BexitDy%3D0%3BentryX%3D1%3BentryY%3D1%3BentryDx%3D0%3BentryDy%3D0%3BfillColor%3D%23ffe6cc%3BstrokeColor%3D%23d79b00%3Bshadow%3D0%3B%22%20edge%3D%221%22%20source%3D%222%22%20target%3D%223%22%20parent%3D%221%22%3E%3CmxGeometry%20width%3D%2250%22%20height%3D%2250%22%20relative%3D%221%22%20as%3D%22geometry%22%3E%3CmxPoint%20x%3D%22270%22%20y%3D%221070%22%20as%3D%22sourcePoint%22%2F%3E%3CmxPoint%20x%3D%22320%22%20y%3D%221020%22%20as%3D%22targetPoint%22%2F%3E%3C%2FmxGeometry%3E%3C%2FmxCell%3E%3CmxCell%20id%3D%228%22%20value%3D%22ward%22%20style%3D%22text%3Bhtml%3D1%3Balign%3Dcenter%3BverticalAlign%3Dmiddle%3BwhiteSpace%3Dwrap%3Brounded%3D0%3Bshadow%3D0%3B%22%20vertex%3D%221%22%20parent%3D%221%22%3E%3CmxGeometry%20x%3D%22385%22%20y%3D%221065%22%20width%3D%2260%22%20height%3D%2230%22%20as%3D%22geometry%22%2F%3E%3C%2FmxCell%3E%3CmxCell%20id%3D%229%22%20value%3D%221%22%20style%3D%22text%3Bhtml%3D1%3Balign%3Dcenter%3BverticalAlign%3Dmiddle%3BwhiteSpace%3Dwrap%3Brounded%3D0%3B%22%20vertex%3D%221%22%20parent%3D%221%22%3E%3CmxGeometry%20x%3D%22450%22%20y%3D%221035%22%20width%3D%2260%22%20height%3D%2230%22%20as%3D%22geometry%22%2F%3E%3C%2FmxCell%3E%3C%2Froot%3E%3C%2FmxGraphModel%3E&lt;/span&gt;" style="text;html=1;align=center;verticalAlign=middle;whiteSpace=wrap;rounded=0;shadow=0;labelBackgroundColor=none;fontColor=#1D3557;" parent="1" vertex="1">
          <mxGeometry x="-187.5" y="1410.5" width="60" height="30" as="geometry" />
        </mxCell>
        <mxCell id="L6swmxHSuRBG7cFLtKDO-101" value="" style="rounded=0;whiteSpace=wrap;html=1;fillColor=#A8DADC;strokeColor=#457B9D;shadow=0;labelBackgroundColor=none;fontColor=#1D3557;" parent="1" vertex="1">
          <mxGeometry x="101.25" y="1445.5" width="120" height="40" as="geometry" />
        </mxCell>
        <mxCell id="L6swmxHSuRBG7cFLtKDO-102" value="&lt;h1&gt;&lt;span style=&quot;font-size: 12px;&quot;&gt;CodeNumber&lt;/span&gt;&lt;/h1&gt;" style="ellipse;whiteSpace=wrap;html=1;fillColor=#A8DADC;strokeColor=#457B9D;shadow=0;labelBackgroundColor=none;fontColor=#1D3557;" parent="1" vertex="1">
          <mxGeometry x="38.75" y="1570.5" width="80" height="40" as="geometry" />
        </mxCell>
        <mxCell id="L6swmxHSuRBG7cFLtKDO-103" value="Dosag" style="ellipse;whiteSpace=wrap;html=1;fillColor=#A8DADC;strokeColor=#457B9D;shadow=0;labelBackgroundColor=none;fontColor=#1D3557;" parent="1" vertex="1">
          <mxGeometry x="238.75" y="1555.5" width="70" height="40" as="geometry" />
        </mxCell>
        <mxCell id="L6swmxHSuRBG7cFLtKDO-104" value="" style="endArrow=none;html=1;rounded=0;exitX=0;exitY=1;exitDx=0;exitDy=0;entryX=1;entryY=1;entryDx=0;entryDy=0;strokeColor=#457B9D;shadow=0;labelBackgroundColor=none;fontColor=default;" parent="1" source="L6swmxHSuRBG7cFLtKDO-102" target="L6swmxHSuRBG7cFLtKDO-102" edge="1">
          <mxGeometry width="50" height="50" relative="1" as="geometry">
            <mxPoint x="21.25" y="1410.5" as="sourcePoint" />
            <mxPoint x="71.25" y="1370.5" as="targetPoint" />
          </mxGeometry>
        </mxCell>
        <mxCell id="L6swmxHSuRBG7cFLtKDO-105" value="" style="endArrow=none;html=1;rounded=0;exitX=0.75;exitY=1;exitDx=0;exitDy=0;entryX=0.5;entryY=0;entryDx=0;entryDy=0;strokeColor=#457B9D;shadow=0;labelBackgroundColor=none;fontColor=default;" parent="1" source="L6swmxHSuRBG7cFLtKDO-101" target="L6swmxHSuRBG7cFLtKDO-103" edge="1">
          <mxGeometry width="50" height="50" relative="1" as="geometry">
            <mxPoint x="211.25" y="1455.5" as="sourcePoint" />
            <mxPoint x="261.25" y="1405.5" as="targetPoint" />
          </mxGeometry>
        </mxCell>
        <mxCell id="L6swmxHSuRBG7cFLtKDO-106" value="" style="endArrow=none;html=1;rounded=0;exitX=0.153;exitY=1.01;exitDx=0;exitDy=0;entryX=0.5;entryY=0;entryDx=0;entryDy=0;strokeColor=#457B9D;shadow=0;labelBackgroundColor=none;fontColor=default;exitPerimeter=0;" parent="1" source="L6swmxHSuRBG7cFLtKDO-101" target="L6swmxHSuRBG7cFLtKDO-102" edge="1">
          <mxGeometry width="50" height="50" relative="1" as="geometry">
            <mxPoint x="11.25" y="1455.5" as="sourcePoint" />
            <mxPoint x="61.25" y="1405.5" as="targetPoint" />
          </mxGeometry>
        </mxCell>
        <mxCell id="L6swmxHSuRBG7cFLtKDO-107" value="drug" style="text;html=1;align=center;verticalAlign=middle;whiteSpace=wrap;rounded=0;shadow=0;labelBackgroundColor=none;fontColor=#1D3557;" parent="1" vertex="1">
          <mxGeometry x="126.25" y="1450.5" width="60" height="30" as="geometry" />
        </mxCell>
        <mxCell id="L6swmxHSuRBG7cFLtKDO-109" value="Address" style="ellipse;whiteSpace=wrap;html=1;fillColor=#A8DADC;strokeColor=#457B9D;shadow=0;labelBackgroundColor=none;fontColor=#1D3557;" parent="1" vertex="1">
          <mxGeometry x="-325" y="1413" width="72.5" height="25" as="geometry" />
        </mxCell>
        <mxCell id="L6swmxHSuRBG7cFLtKDO-110" value="" style="endArrow=none;html=1;rounded=0;exitX=0;exitY=0.5;exitDx=0;exitDy=0;entryX=1;entryY=0.5;entryDx=0;entryDy=0;strokeColor=#457B9D;shadow=0;labelBackgroundColor=none;fontColor=default;" parent="1" source="L6swmxHSuRBG7cFLtKDO-93" target="L6swmxHSuRBG7cFLtKDO-109" edge="1">
          <mxGeometry width="50" height="50" relative="1" as="geometry">
            <mxPoint x="-112.5" y="1415.5" as="sourcePoint" />
            <mxPoint x="-122.5" y="1315.5" as="targetPoint" />
          </mxGeometry>
        </mxCell>
        <mxCell id="L6swmxHSuRBG7cFLtKDO-114" value="" style="ellipse;whiteSpace=wrap;html=1;fillColor=#A8DADC;strokeColor=#457B9D;shadow=0;labelBackgroundColor=none;fontColor=#1D3557;" parent="1" vertex="1">
          <mxGeometry x="128.75" y="1570.5" width="100" height="50" as="geometry" />
        </mxCell>
        <mxCell id="L6swmxHSuRBG7cFLtKDO-115" value="BrandName" style="ellipse;whiteSpace=wrap;html=1;fillColor=#A8DADC;strokeColor=#457B9D;shadow=0;labelBackgroundColor=none;fontColor=#1D3557;" parent="1" vertex="1">
          <mxGeometry x="140" y="1578" width="77.5" height="35" as="geometry" />
        </mxCell>
        <mxCell id="L6swmxHSuRBG7cFLtKDO-116" value="" style="endArrow=none;html=1;rounded=0;strokeColor=#457B9D;labelBackgroundColor=none;fontColor=default;entryX=0.5;entryY=0;entryDx=0;entryDy=0;exitX=0.345;exitY=1.07;exitDx=0;exitDy=0;exitPerimeter=0;" parent="1" source="L6swmxHSuRBG7cFLtKDO-101" edge="1">
          <mxGeometry width="50" height="50" relative="1" as="geometry">
            <mxPoint x="221.25" y="1515.5" as="sourcePoint" />
            <mxPoint x="178.75000000000045" y="1570.5" as="targetPoint" />
          </mxGeometry>
        </mxCell>
        <mxCell id="L6swmxHSuRBG7cFLtKDO-117" value="" style="rhombus;whiteSpace=wrap;html=1;labelBackgroundColor=none;fillColor=#A8DADC;strokeColor=#457B9D;fontColor=#1D3557;" parent="1" vertex="1">
          <mxGeometry x="-225" y="1215.5" width="80" height="80" as="geometry" />
        </mxCell>
        <mxCell id="L6swmxHSuRBG7cFLtKDO-118" value="" style="endArrow=none;html=1;rounded=0;entryX=0.25;entryY=1;entryDx=0;entryDy=0;labelBackgroundColor=none;strokeColor=#457B9D;fontColor=default;exitX=0.5;exitY=0;exitDx=0;exitDy=0;" parent="1" source="L6swmxHSuRBG7cFLtKDO-117" target="L6swmxHSuRBG7cFLtKDO-35" edge="1">
          <mxGeometry width="50" height="50" relative="1" as="geometry">
            <mxPoint x="-142.5" y="1204.7893218813451" as="sourcePoint" />
            <mxPoint x="-142.5" y="1154.7893218813451" as="targetPoint" />
          </mxGeometry>
        </mxCell>
        <mxCell id="L6swmxHSuRBG7cFLtKDO-119" value="" style="endArrow=none;html=1;rounded=0;entryX=0.5;entryY=1;entryDx=0;entryDy=0;exitX=0.5;exitY=0;exitDx=0;exitDy=0;labelBackgroundColor=none;strokeColor=#457B9D;fontColor=default;" parent="1" source="L6swmxHSuRBG7cFLtKDO-93" target="L6swmxHSuRBG7cFLtKDO-117" edge="1">
          <mxGeometry width="50" height="50" relative="1" as="geometry">
            <mxPoint x="-162.5" y="1385.5" as="sourcePoint" />
            <mxPoint x="-112.5" y="1335.5" as="targetPoint" />
          </mxGeometry>
        </mxCell>
        <mxCell id="L6swmxHSuRBG7cFLtKDO-120" value="supervision" style="text;html=1;align=center;verticalAlign=middle;whiteSpace=wrap;rounded=0;labelBackgroundColor=none;fontColor=#1D3557;" parent="1" vertex="1">
          <mxGeometry x="-215" y="1245.5" width="60" height="30" as="geometry" />
        </mxCell>
        <mxCell id="L6swmxHSuRBG7cFLtKDO-121" value="1" style="text;html=1;align=center;verticalAlign=middle;whiteSpace=wrap;rounded=0;labelBackgroundColor=none;fontColor=#1D3557;" parent="1" vertex="1">
          <mxGeometry x="-198.75" y="1125.5" width="27.5" height="20" as="geometry" />
        </mxCell>
        <mxCell id="L6swmxHSuRBG7cFLtKDO-122" value="1" style="text;html=1;align=center;verticalAlign=middle;whiteSpace=wrap;rounded=0;labelBackgroundColor=none;fontColor=#1D3557;" parent="1" vertex="1">
          <mxGeometry x="-177.5" y="1388" width="22.5" height="15" as="geometry" />
        </mxCell>
        <mxCell id="L6swmxHSuRBG7cFLtKDO-123" value="" style="endArrow=none;html=1;rounded=0;exitX=0.589;exitY=0.096;exitDx=0;exitDy=0;exitPerimeter=0;labelBackgroundColor=none;strokeColor=#457B9D;fontColor=default;entryX=0.31;entryY=1.009;entryDx=0;entryDy=0;entryPerimeter=0;" parent="1" source="L6swmxHSuRBG7cFLtKDO-117" target="L6swmxHSuRBG7cFLtKDO-35" edge="1">
          <mxGeometry width="50" height="50" relative="1" as="geometry">
            <mxPoint x="-142.5" y="1195.5" as="sourcePoint" />
            <mxPoint x="-135" y="1125.5" as="targetPoint" />
          </mxGeometry>
        </mxCell>
        <mxCell id="L6swmxHSuRBG7cFLtKDO-124" value="" style="rhombus;whiteSpace=wrap;html=1;labelBackgroundColor=none;fillColor=#A8DADC;strokeColor=#457B9D;fontColor=#1D3557;" parent="1" vertex="1">
          <mxGeometry x="130.63" y="1275.5" width="80" height="80" as="geometry" />
        </mxCell>
        <mxCell id="L6swmxHSuRBG7cFLtKDO-125" value="" style="endArrow=none;html=1;rounded=0;entryX=0;entryY=0.5;entryDx=0;entryDy=0;exitX=1;exitY=0;exitDx=0;exitDy=0;labelBackgroundColor=none;strokeColor=#457B9D;fontColor=default;" parent="1" source="L6swmxHSuRBG7cFLtKDO-93" target="L6swmxHSuRBG7cFLtKDO-124" edge="1">
          <mxGeometry width="50" height="50" relative="1" as="geometry">
            <mxPoint x="-42.5" y="1395.5" as="sourcePoint" />
            <mxPoint x="7.5" y="1345.5" as="targetPoint" />
          </mxGeometry>
        </mxCell>
        <mxCell id="L6swmxHSuRBG7cFLtKDO-126" value="" style="endArrow=none;html=1;rounded=0;entryX=0.5;entryY=1;entryDx=0;entryDy=0;exitX=0.5;exitY=0;exitDx=0;exitDy=0;labelBackgroundColor=none;strokeColor=#457B9D;fontColor=default;" parent="1" source="L6swmxHSuRBG7cFLtKDO-101" target="L6swmxHSuRBG7cFLtKDO-124" edge="1">
          <mxGeometry width="50" height="50" relative="1" as="geometry">
            <mxPoint x="27.5" y="1435.5" as="sourcePoint" />
            <mxPoint x="77.5" y="1385.5" as="targetPoint" />
          </mxGeometry>
        </mxCell>
        <mxCell id="L6swmxHSuRBG7cFLtKDO-127" value="" style="endArrow=none;html=1;rounded=0;entryX=0.327;entryY=1.045;entryDx=0;entryDy=0;entryPerimeter=0;exitX=0.5;exitY=0;exitDx=0;exitDy=0;labelBackgroundColor=none;strokeColor=#457B9D;fontColor=default;" parent="1" source="L6swmxHSuRBG7cFLtKDO-124" target="L6swmxHSuRBG7cFLtKDO-52" edge="1">
          <mxGeometry width="50" height="50" relative="1" as="geometry">
            <mxPoint x="87.5" y="1175.5" as="sourcePoint" />
            <mxPoint x="137.5" y="1125.5" as="targetPoint" />
          </mxGeometry>
        </mxCell>
        <mxCell id="L6swmxHSuRBG7cFLtKDO-128" value="give" style="text;html=1;align=center;verticalAlign=middle;whiteSpace=wrap;rounded=0;labelBackgroundColor=none;fontColor=#1D3557;" parent="1" vertex="1">
          <mxGeometry x="140.63" y="1300.5" width="60" height="30" as="geometry" />
        </mxCell>
        <mxCell id="L6swmxHSuRBG7cFLtKDO-129" value="date" style="ellipse;whiteSpace=wrap;html=1;fillColor=#A8DADC;strokeColor=#457B9D;shadow=0;labelBackgroundColor=none;fontColor=#1D3557;" parent="1" vertex="1">
          <mxGeometry x="275.63" y="1305.5" width="79.37" height="30" as="geometry" />
        </mxCell>
        <mxCell id="L6swmxHSuRBG7cFLtKDO-130" value="" style="endArrow=none;html=1;rounded=0;strokeColor=#457B9D;entryX=0;entryY=0.5;entryDx=0;entryDy=0;exitX=1;exitY=0.5;exitDx=0;exitDy=0;labelBackgroundColor=none;fontColor=default;" parent="1" source="L6swmxHSuRBG7cFLtKDO-124" target="L6swmxHSuRBG7cFLtKDO-129" edge="1">
          <mxGeometry width="50" height="50" relative="1" as="geometry">
            <mxPoint x="195.63" y="1370.5" as="sourcePoint" />
            <mxPoint x="305.63" y="1370.5" as="targetPoint" />
          </mxGeometry>
        </mxCell>
        <mxCell id="L6swmxHSuRBG7cFLtKDO-131" value="&lt;span style=&quot;font-family: &amp;quot;Times New Roman&amp;quot;, serif;&quot;&gt;&lt;font style=&quot;font-size: 48px;&quot;&gt;problem4&lt;/font&gt;&lt;/span&gt;" style="text;html=1;align=center;verticalAlign=middle;whiteSpace=wrap;rounded=0;labelBackgroundColor=none;fontColor=#1D3557;" parent="1" vertex="1">
          <mxGeometry x="1550" y="710" width="330" height="160" as="geometry" />
        </mxCell>
        <mxCell id="L6swmxHSuRBG7cFLtKDO-132" value="" style="rounded=0;whiteSpace=wrap;html=1;fillColor=#A8DADC;strokeColor=#457B9D;shadow=0;labelBackgroundColor=none;fontColor=#1D3557;" parent="1" vertex="1">
          <mxGeometry x="1970" y="1220" width="120" height="40" as="geometry" />
        </mxCell>
        <mxCell id="L6swmxHSuRBG7cFLtKDO-133" value="&lt;h1&gt;&lt;span style=&quot;font-size: 12px;&quot;&gt;Id&lt;/span&gt;&lt;/h1&gt;" style="ellipse;whiteSpace=wrap;html=1;fillColor=#A8DADC;strokeColor=#457B9D;shadow=0;labelBackgroundColor=none;fontColor=#1D3557;" parent="1" vertex="1">
          <mxGeometry x="1995" y="1140.5" width="85" height="25" as="geometry" />
        </mxCell>
        <mxCell id="L6swmxHSuRBG7cFLtKDO-134" value="Name" style="ellipse;whiteSpace=wrap;html=1;fillColor=#A8DADC;strokeColor=#457B9D;shadow=0;labelBackgroundColor=none;fontColor=#1D3557;" parent="1" vertex="1">
          <mxGeometry x="2085" y="1148" width="75" height="25" as="geometry" />
        </mxCell>
        <mxCell id="L6swmxHSuRBG7cFLtKDO-135" value="" style="endArrow=none;html=1;rounded=0;exitX=0;exitY=1;exitDx=0;exitDy=0;entryX=1;entryY=1;entryDx=0;entryDy=0;strokeColor=#457B9D;shadow=0;labelBackgroundColor=none;fontColor=default;" parent="1" source="L6swmxHSuRBG7cFLtKDO-133" target="L6swmxHSuRBG7cFLtKDO-133" edge="1">
          <mxGeometry width="50" height="50" relative="1" as="geometry">
            <mxPoint x="1930" y="1180" as="sourcePoint" />
            <mxPoint x="1980" y="1140" as="targetPoint" />
          </mxGeometry>
        </mxCell>
        <mxCell id="L6swmxHSuRBG7cFLtKDO-136" value="" style="endArrow=none;html=1;rounded=0;exitX=0.75;exitY=0;exitDx=0;exitDy=0;entryX=0;entryY=1;entryDx=0;entryDy=0;strokeColor=#457B9D;shadow=0;labelBackgroundColor=none;fontColor=default;" parent="1" source="L6swmxHSuRBG7cFLtKDO-132" target="L6swmxHSuRBG7cFLtKDO-134" edge="1">
          <mxGeometry width="50" height="50" relative="1" as="geometry">
            <mxPoint x="2080" y="1230" as="sourcePoint" />
            <mxPoint x="2130" y="1180" as="targetPoint" />
            <Array as="points" />
          </mxGeometry>
        </mxCell>
        <mxCell id="L6swmxHSuRBG7cFLtKDO-137" value="" style="endArrow=none;html=1;rounded=0;exitX=0.514;exitY=0.074;exitDx=0;exitDy=0;entryX=0.5;entryY=1;entryDx=0;entryDy=0;strokeColor=#457B9D;shadow=0;labelBackgroundColor=none;fontColor=default;exitPerimeter=0;" parent="1" source="L6swmxHSuRBG7cFLtKDO-132" target="L6swmxHSuRBG7cFLtKDO-133" edge="1">
          <mxGeometry width="50" height="50" relative="1" as="geometry">
            <mxPoint x="1880" y="1230" as="sourcePoint" />
            <mxPoint x="1930" y="1180" as="targetPoint" />
          </mxGeometry>
        </mxCell>
        <mxCell id="L6swmxHSuRBG7cFLtKDO-138" value="airline" style="text;html=1;align=center;verticalAlign=middle;whiteSpace=wrap;rounded=0;shadow=0;labelBackgroundColor=none;fontColor=#1D3557;" parent="1" vertex="1">
          <mxGeometry x="1995" y="1225" width="60" height="30" as="geometry" />
        </mxCell>
        <mxCell id="L6swmxHSuRBG7cFLtKDO-139" value="" style="ellipse;whiteSpace=wrap;html=1;fillColor=#A8DADC;strokeColor=#457B9D;shadow=0;labelBackgroundColor=none;fontColor=#1D3557;" parent="1" vertex="1">
          <mxGeometry x="2200" y="1220" width="85" height="50" as="geometry" />
        </mxCell>
        <mxCell id="L6swmxHSuRBG7cFLtKDO-140" value="phone" style="ellipse;whiteSpace=wrap;html=1;fillColor=#A8DADC;strokeColor=#457B9D;shadow=0;labelBackgroundColor=none;fontColor=#1D3557;" parent="1" vertex="1">
          <mxGeometry x="2210" y="1230" width="65" height="30" as="geometry" />
        </mxCell>
        <mxCell id="L6swmxHSuRBG7cFLtKDO-141" value="" style="endArrow=none;html=1;rounded=0;strokeColor=#457B9D;labelBackgroundColor=none;fontColor=default;" parent="1" source="L6swmxHSuRBG7cFLtKDO-132" edge="1">
          <mxGeometry width="50" height="50" relative="1" as="geometry">
            <mxPoint x="2090" y="1290" as="sourcePoint" />
            <mxPoint x="2200" y="1240" as="targetPoint" />
          </mxGeometry>
        </mxCell>
        <mxCell id="L6swmxHSuRBG7cFLtKDO-142" value="name_contact_person" style="ellipse;whiteSpace=wrap;html=1;fillColor=#A8DADC;strokeColor=#457B9D;shadow=0;labelBackgroundColor=none;fontColor=#1D3557;" parent="1" vertex="1">
          <mxGeometry x="2200" y="1280" width="130" height="30" as="geometry" />
        </mxCell>
        <mxCell id="L6swmxHSuRBG7cFLtKDO-143" value="" style="endArrow=none;html=1;rounded=0;strokeColor=#457B9D;entryX=0;entryY=0;entryDx=0;entryDy=0;exitX=1;exitY=1;exitDx=0;exitDy=0;labelBackgroundColor=none;fontColor=default;" parent="1" source="L6swmxHSuRBG7cFLtKDO-132" target="L6swmxHSuRBG7cFLtKDO-142" edge="1">
          <mxGeometry width="50" height="50" relative="1" as="geometry">
            <mxPoint x="2055" y="1323.75" as="sourcePoint" />
            <mxPoint x="2165" y="1323.75" as="targetPoint" />
          </mxGeometry>
        </mxCell>
        <mxCell id="L6swmxHSuRBG7cFLtKDO-144" value="address" style="ellipse;whiteSpace=wrap;html=1;fillColor=#A8DADC;strokeColor=#457B9D;shadow=0;labelBackgroundColor=none;fontColor=#1D3557;" parent="1" vertex="1">
          <mxGeometry x="2185" y="1171" width="60" height="25" as="geometry" />
        </mxCell>
        <mxCell id="L6swmxHSuRBG7cFLtKDO-145" value="" style="endArrow=none;html=1;rounded=0;exitX=1;exitY=0;exitDx=0;exitDy=0;entryX=0;entryY=0.5;entryDx=0;entryDy=0;strokeColor=#457B9D;shadow=0;labelBackgroundColor=none;fontColor=default;" parent="1" source="L6swmxHSuRBG7cFLtKDO-132" target="L6swmxHSuRBG7cFLtKDO-144" edge="1">
          <mxGeometry width="50" height="50" relative="1" as="geometry">
            <mxPoint x="2070" y="1230" as="sourcePoint" />
            <mxPoint x="2205" y="1125" as="targetPoint" />
          </mxGeometry>
        </mxCell>
        <mxCell id="L6swmxHSuRBG7cFLtKDO-146" value="" style="rounded=0;whiteSpace=wrap;html=1;fillColor=#A8DADC;strokeColor=#457B9D;shadow=0;labelBackgroundColor=none;fontColor=#1D3557;" parent="1" vertex="1">
          <mxGeometry x="1970" y="1530.5" width="120" height="40" as="geometry" />
        </mxCell>
        <mxCell id="L6swmxHSuRBG7cFLtKDO-147" value="&lt;h1&gt;&lt;span style=&quot;font-size: 12px;&quot;&gt;Id&lt;/span&gt;&lt;/h1&gt;" style="ellipse;whiteSpace=wrap;html=1;fillColor=#A8DADC;strokeColor=#457B9D;shadow=0;labelBackgroundColor=none;fontColor=#1D3557;" parent="1" vertex="1">
          <mxGeometry x="1945" y="1635.5" width="40" height="20" as="geometry" />
        </mxCell>
        <mxCell id="L6swmxHSuRBG7cFLtKDO-148" value="Name" style="ellipse;whiteSpace=wrap;html=1;fillColor=#A8DADC;strokeColor=#457B9D;shadow=0;labelBackgroundColor=none;fontColor=#1D3557;" parent="1" vertex="1">
          <mxGeometry x="2165" y="1545.5" width="70" height="30" as="geometry" />
        </mxCell>
        <mxCell id="L6swmxHSuRBG7cFLtKDO-149" value="" style="endArrow=none;html=1;rounded=0;exitX=0;exitY=1;exitDx=0;exitDy=0;entryX=1;entryY=1;entryDx=0;entryDy=0;strokeColor=#457B9D;shadow=0;labelBackgroundColor=none;fontColor=default;" parent="1" source="L6swmxHSuRBG7cFLtKDO-147" target="L6swmxHSuRBG7cFLtKDO-147" edge="1">
          <mxGeometry width="50" height="50" relative="1" as="geometry">
            <mxPoint x="1930" y="1490.5" as="sourcePoint" />
            <mxPoint x="1980" y="1450.5" as="targetPoint" />
          </mxGeometry>
        </mxCell>
        <mxCell id="L6swmxHSuRBG7cFLtKDO-150" value="" style="endArrow=none;html=1;rounded=0;exitX=1;exitY=0.5;exitDx=0;exitDy=0;entryX=0;entryY=0.5;entryDx=0;entryDy=0;strokeColor=#457B9D;shadow=0;labelBackgroundColor=none;fontColor=default;" parent="1" source="L6swmxHSuRBG7cFLtKDO-146" target="L6swmxHSuRBG7cFLtKDO-148" edge="1">
          <mxGeometry width="50" height="50" relative="1" as="geometry">
            <mxPoint x="2080" y="1540.5" as="sourcePoint" />
            <mxPoint x="2130" y="1490.5" as="targetPoint" />
            <Array as="points" />
          </mxGeometry>
        </mxCell>
        <mxCell id="L6swmxHSuRBG7cFLtKDO-151" value="" style="endArrow=none;html=1;rounded=0;strokeColor=#457B9D;shadow=0;labelBackgroundColor=none;fontColor=default;exitX=0.137;exitY=1.008;exitDx=0;exitDy=0;entryX=0.5;entryY=0;entryDx=0;entryDy=0;exitPerimeter=0;" parent="1" source="L6swmxHSuRBG7cFLtKDO-146" target="L6swmxHSuRBG7cFLtKDO-147" edge="1">
          <mxGeometry width="50" height="50" relative="1" as="geometry">
            <mxPoint x="2000" y="1575.5" as="sourcePoint" />
            <mxPoint x="2000" y="1695.5" as="targetPoint" />
          </mxGeometry>
        </mxCell>
        <mxCell id="L6swmxHSuRBG7cFLtKDO-152" value="employee" style="text;html=1;align=center;verticalAlign=middle;whiteSpace=wrap;rounded=0;shadow=0;labelBackgroundColor=none;fontColor=#1D3557;" parent="1" vertex="1">
          <mxGeometry x="1995" y="1535.5" width="60" height="30" as="geometry" />
        </mxCell>
        <mxCell id="L6swmxHSuRBG7cFLtKDO-153" value="" style="ellipse;whiteSpace=wrap;html=1;fillColor=#A8DADC;strokeColor=#457B9D;shadow=0;labelBackgroundColor=none;fontColor=#1D3557;" parent="1" vertex="1">
          <mxGeometry x="2110" y="1635.5" width="100" height="45" as="geometry" />
        </mxCell>
        <mxCell id="L6swmxHSuRBG7cFLtKDO-154" value="qualification" style="ellipse;whiteSpace=wrap;html=1;fillColor=#A8DADC;strokeColor=#457B9D;shadow=0;labelBackgroundColor=none;fontColor=#1D3557;" parent="1" vertex="1">
          <mxGeometry x="2117.5" y="1645.5" width="80" height="25" as="geometry" />
        </mxCell>
        <mxCell id="L6swmxHSuRBG7cFLtKDO-155" value="" style="endArrow=none;html=1;rounded=0;strokeColor=#457B9D;labelBackgroundColor=none;fontColor=default;entryX=0.242;entryY=0.084;entryDx=0;entryDy=0;entryPerimeter=0;exitX=0.719;exitY=1.032;exitDx=0;exitDy=0;exitPerimeter=0;" parent="1" source="L6swmxHSuRBG7cFLtKDO-146" target="L6swmxHSuRBG7cFLtKDO-153" edge="1">
          <mxGeometry width="50" height="50" relative="1" as="geometry">
            <mxPoint x="2090" y="1600.5" as="sourcePoint" />
            <mxPoint x="2150" y="1635.5" as="targetPoint" />
          </mxGeometry>
        </mxCell>
        <mxCell id="L6swmxHSuRBG7cFLtKDO-156" value="B.D" style="ellipse;whiteSpace=wrap;html=1;fillColor=#A8DADC;strokeColor=#457B9D;shadow=0;labelBackgroundColor=none;fontColor=#1D3557;" parent="1" vertex="1">
          <mxGeometry x="2047.5" y="1640.5" width="50" height="25" as="geometry" />
        </mxCell>
        <mxCell id="L6swmxHSuRBG7cFLtKDO-157" value="" style="endArrow=none;html=1;rounded=0;strokeColor=#457B9D;entryX=0.5;entryY=0;entryDx=0;entryDy=0;exitX=0.5;exitY=1;exitDx=0;exitDy=0;labelBackgroundColor=none;fontColor=default;" parent="1" source="L6swmxHSuRBG7cFLtKDO-146" target="L6swmxHSuRBG7cFLtKDO-156" edge="1">
          <mxGeometry width="50" height="50" relative="1" as="geometry">
            <mxPoint x="2055" y="1634.25" as="sourcePoint" />
            <mxPoint x="2165" y="1634.25" as="targetPoint" />
          </mxGeometry>
        </mxCell>
        <mxCell id="L6swmxHSuRBG7cFLtKDO-158" value="address" style="ellipse;whiteSpace=wrap;html=1;fillColor=#A8DADC;strokeColor=#457B9D;shadow=0;labelBackgroundColor=none;fontColor=#1D3557;" parent="1" vertex="1">
          <mxGeometry x="2152.5" y="1585.5" width="55" height="40" as="geometry" />
        </mxCell>
        <mxCell id="L6swmxHSuRBG7cFLtKDO-159" value="" style="endArrow=none;html=1;rounded=0;exitX=1;exitY=1;exitDx=0;exitDy=0;entryX=0;entryY=0.5;entryDx=0;entryDy=0;strokeColor=#457B9D;shadow=0;labelBackgroundColor=none;fontColor=default;" parent="1" source="L6swmxHSuRBG7cFLtKDO-146" target="L6swmxHSuRBG7cFLtKDO-158" edge="1">
          <mxGeometry width="50" height="50" relative="1" as="geometry">
            <mxPoint x="2070" y="1540.5" as="sourcePoint" />
            <mxPoint x="2205" y="1435.5" as="targetPoint" />
          </mxGeometry>
        </mxCell>
        <mxCell id="L6swmxHSuRBG7cFLtKDO-194" value="" style="endArrow=none;html=1;rounded=0;labelBackgroundColor=none;strokeColor=#457B9D;fontColor=default;entryX=0.072;entryY=0.426;entryDx=0;entryDy=0;entryPerimeter=0;" parent="1" target="dQtb5P0k24ia0JGGlsfE-52" edge="1">
          <mxGeometry width="50" height="50" relative="1" as="geometry">
            <mxPoint x="1745" y="18.569999999999993" as="sourcePoint" />
            <mxPoint x="1880" y="19" as="targetPoint" />
          </mxGeometry>
        </mxCell>
        <mxCell id="L6swmxHSuRBG7cFLtKDO-195" value="time" style="ellipse;whiteSpace=wrap;html=1;fillColor=#A8DADC;strokeColor=#457B9D;shadow=0;labelBackgroundColor=none;fontColor=#1D3557;" parent="1" vertex="1">
          <mxGeometry x="218.13" y="1355.5" width="56.87" height="35" as="geometry" />
        </mxCell>
        <mxCell id="L6swmxHSuRBG7cFLtKDO-196" value="specific dosag" style="ellipse;whiteSpace=wrap;html=1;fillColor=#A8DADC;strokeColor=#457B9D;shadow=0;labelBackgroundColor=none;fontColor=#1D3557;" parent="1" vertex="1">
          <mxGeometry x="218.13" y="1225.5" width="96.87" height="45" as="geometry" />
        </mxCell>
        <mxCell id="L6swmxHSuRBG7cFLtKDO-197" value="" style="endArrow=none;html=1;rounded=0;strokeColor=#457B9D;entryX=0;entryY=0.5;entryDx=0;entryDy=0;exitX=1;exitY=1;exitDx=0;exitDy=0;labelBackgroundColor=none;fontColor=default;" parent="1" source="L6swmxHSuRBG7cFLtKDO-124" target="L6swmxHSuRBG7cFLtKDO-195" edge="1">
          <mxGeometry width="50" height="50" relative="1" as="geometry">
            <mxPoint x="206.13" y="1320.5" as="sourcePoint" />
            <mxPoint x="286.13" y="1320.5" as="targetPoint" />
          </mxGeometry>
        </mxCell>
        <mxCell id="L6swmxHSuRBG7cFLtKDO-198" value="" style="endArrow=none;html=1;rounded=0;strokeColor=#457B9D;entryX=0;entryY=1;entryDx=0;entryDy=0;exitX=1;exitY=0;exitDx=0;exitDy=0;labelBackgroundColor=none;fontColor=default;" parent="1" source="L6swmxHSuRBG7cFLtKDO-124" target="L6swmxHSuRBG7cFLtKDO-196" edge="1">
          <mxGeometry width="50" height="50" relative="1" as="geometry">
            <mxPoint x="178.13" y="1280.5" as="sourcePoint" />
            <mxPoint x="258.13" y="1280.5" as="targetPoint" />
          </mxGeometry>
        </mxCell>
        <mxCell id="L6swmxHSuRBG7cFLtKDO-199" value="" style="rhombus;whiteSpace=wrap;html=1;labelBackgroundColor=none;fillColor=#A8DADC;strokeColor=#457B9D;fontColor=#1D3557;" parent="1" vertex="1">
          <mxGeometry x="-125" y="1195.5" width="80" height="80" as="geometry" />
        </mxCell>
        <mxCell id="L6swmxHSuRBG7cFLtKDO-200" value="" style="endArrow=none;html=1;rounded=0;exitX=0.5;exitY=0;exitDx=0;exitDy=0;entryX=0.75;entryY=1;entryDx=0;entryDy=0;labelBackgroundColor=none;strokeColor=#457B9D;fontColor=default;" parent="1" source="L6swmxHSuRBG7cFLtKDO-199" target="L6swmxHSuRBG7cFLtKDO-35" edge="1">
          <mxGeometry width="50" height="50" relative="1" as="geometry">
            <mxPoint x="-73.5" y="1250.5" as="sourcePoint" />
            <mxPoint x="-70" y="1143.5" as="targetPoint" />
          </mxGeometry>
        </mxCell>
        <mxCell id="L6swmxHSuRBG7cFLtKDO-201" value="" style="endArrow=none;html=1;rounded=0;exitX=0.5;exitY=1;exitDx=0;exitDy=0;entryX=0.75;entryY=0;entryDx=0;entryDy=0;labelBackgroundColor=none;strokeColor=#457B9D;fontColor=default;" parent="1" source="L6swmxHSuRBG7cFLtKDO-199" target="L6swmxHSuRBG7cFLtKDO-93" edge="1">
          <mxGeometry width="50" height="50" relative="1" as="geometry">
            <mxPoint x="-35" y="1345.5" as="sourcePoint" />
            <mxPoint x="-105" y="1285.5" as="targetPoint" />
          </mxGeometry>
        </mxCell>
        <mxCell id="L6swmxHSuRBG7cFLtKDO-202" value="surve" style="text;html=1;align=center;verticalAlign=middle;whiteSpace=wrap;rounded=0;labelBackgroundColor=none;fontColor=#1D3557;" parent="1" vertex="1">
          <mxGeometry x="-117.5" y="1220.5" width="60" height="30" as="geometry" />
        </mxCell>
        <mxCell id="L6swmxHSuRBG7cFLtKDO-203" value="1" style="text;html=1;align=center;verticalAlign=middle;whiteSpace=wrap;rounded=0;labelBackgroundColor=none;fontColor=#1D3557;" parent="1" vertex="1">
          <mxGeometry x="-110" y="1125.5" width="30" height="15" as="geometry" />
        </mxCell>
        <mxCell id="L6swmxHSuRBG7cFLtKDO-204" value="" style="endArrow=none;html=1;rounded=0;entryX=0.435;entryY=0.941;entryDx=0;entryDy=0;entryPerimeter=0;exitX=0.684;exitY=0.003;exitDx=0;exitDy=0;exitPerimeter=0;labelBackgroundColor=none;strokeColor=#457B9D;fontColor=default;" parent="1" source="L6swmxHSuRBG7cFLtKDO-93" target="L6swmxHSuRBG7cFLtKDO-199" edge="1">
          <mxGeometry width="50" height="50" relative="1" as="geometry">
            <mxPoint x="-105" y="1345.5" as="sourcePoint" />
            <mxPoint x="-55" y="1295.5" as="targetPoint" />
          </mxGeometry>
        </mxCell>
        <mxCell id="L6swmxHSuRBG7cFLtKDO-205" value="M" style="text;html=1;align=center;verticalAlign=middle;whiteSpace=wrap;rounded=0;labelBackgroundColor=none;fontColor=#1D3557;" parent="1" vertex="1">
          <mxGeometry x="-117.5" y="1385.5" width="12.5" height="20" as="geometry" />
        </mxCell>
        <mxCell id="L6swmxHSuRBG7cFLtKDO-207" value="Gender" style="ellipse;whiteSpace=wrap;html=1;fillColor=#A8DADC;strokeColor=#457B9D;shadow=0;labelBackgroundColor=none;fontColor=#1D3557;" parent="1" vertex="1">
          <mxGeometry x="1990" y="1635.5" width="50" height="25" as="geometry" />
        </mxCell>
        <mxCell id="L6swmxHSuRBG7cFLtKDO-208" value="" style="endArrow=none;html=1;rounded=0;strokeColor=#457B9D;shadow=0;exitX=0.25;exitY=1;exitDx=0;exitDy=0;entryX=0.5;entryY=0;entryDx=0;entryDy=0;labelBackgroundColor=none;fontColor=default;" parent="1" source="L6swmxHSuRBG7cFLtKDO-146" target="L6swmxHSuRBG7cFLtKDO-207" edge="1">
          <mxGeometry width="50" height="50" relative="1" as="geometry">
            <mxPoint x="2070" y="1579.5" as="sourcePoint" />
            <mxPoint x="2070" y="1699.5" as="targetPoint" />
          </mxGeometry>
        </mxCell>
        <mxCell id="L6swmxHSuRBG7cFLtKDO-210" value="&lt;h1&gt;&lt;span style=&quot;font-size: 12px;&quot;&gt;Id&lt;/span&gt;&lt;/h1&gt;" style="ellipse;whiteSpace=wrap;html=1;fillColor=#A8DADC;strokeColor=#457B9D;shadow=0;labelBackgroundColor=none;fontColor=#1D3557;" parent="1" vertex="1">
          <mxGeometry x="1828" y="940" width="62" height="30" as="geometry" />
        </mxCell>
        <mxCell id="L6swmxHSuRBG7cFLtKDO-211" value="Capacity" style="ellipse;whiteSpace=wrap;html=1;fillColor=#A8DADC;strokeColor=#457B9D;shadow=0;labelBackgroundColor=none;fontColor=#1D3557;" parent="1" vertex="1">
          <mxGeometry x="1900" y="950" width="60" height="40" as="geometry" />
        </mxCell>
        <mxCell id="L6swmxHSuRBG7cFLtKDO-212" value="" style="endArrow=none;html=1;rounded=0;exitX=0;exitY=1;exitDx=0;exitDy=0;entryX=1;entryY=1;entryDx=0;entryDy=0;strokeColor=#457B9D;shadow=0;labelBackgroundColor=none;fontColor=default;" parent="1" source="L6swmxHSuRBG7cFLtKDO-210" target="L6swmxHSuRBG7cFLtKDO-210" edge="1">
          <mxGeometry width="50" height="50" relative="1" as="geometry">
            <mxPoint x="1750" y="937" as="sourcePoint" />
            <mxPoint x="1800" y="897" as="targetPoint" />
          </mxGeometry>
        </mxCell>
        <mxCell id="L6swmxHSuRBG7cFLtKDO-213" value="" style="endArrow=none;html=1;rounded=0;exitX=0.75;exitY=0;exitDx=0;exitDy=0;entryX=0;entryY=1;entryDx=0;entryDy=0;strokeColor=#457B9D;shadow=0;labelBackgroundColor=none;fontColor=default;" parent="1" source="L6swmxHSuRBG7cFLtKDO-250" target="L6swmxHSuRBG7cFLtKDO-211" edge="1">
          <mxGeometry width="50" height="50" relative="1" as="geometry">
            <mxPoint x="1870.5" y="1020" as="sourcePoint" />
            <mxPoint x="1950" y="937" as="targetPoint" />
            <Array as="points" />
          </mxGeometry>
        </mxCell>
        <mxCell id="L6swmxHSuRBG7cFLtKDO-214" value="" style="endArrow=none;html=1;rounded=0;strokeColor=#457B9D;shadow=0;entryX=0.5;entryY=1;entryDx=0;entryDy=0;exitX=0.5;exitY=0;exitDx=0;exitDy=0;labelBackgroundColor=none;fontColor=default;" parent="1" source="L6swmxHSuRBG7cFLtKDO-250" target="L6swmxHSuRBG7cFLtKDO-210" edge="1">
          <mxGeometry width="50" height="50" relative="1" as="geometry">
            <mxPoint x="1828" y="1020" as="sourcePoint" />
            <mxPoint x="1815" y="1142" as="targetPoint" />
          </mxGeometry>
        </mxCell>
        <mxCell id="L6swmxHSuRBG7cFLtKDO-215" value="aircraft" style="text;html=1;align=center;verticalAlign=middle;whiteSpace=wrap;rounded=0;shadow=0;labelBackgroundColor=none;fontColor=#1D3557;" parent="1" vertex="1">
          <mxGeometry x="1798" y="1045" width="60" height="30" as="geometry" />
        </mxCell>
        <mxCell id="L6swmxHSuRBG7cFLtKDO-229" value="Model" style="ellipse;whiteSpace=wrap;html=1;fillColor=#A8DADC;strokeColor=#457B9D;shadow=0;labelBackgroundColor=none;fontColor=#1D3557;" parent="1" vertex="1">
          <mxGeometry x="1733" y="940" width="73" height="35" as="geometry" />
        </mxCell>
        <mxCell id="L6swmxHSuRBG7cFLtKDO-230" value="" style="endArrow=none;html=1;rounded=0;strokeColor=#457B9D;shadow=0;entryX=0.5;entryY=1;entryDx=0;entryDy=0;exitX=0.25;exitY=0;exitDx=0;exitDy=0;labelBackgroundColor=none;fontColor=default;" parent="1" source="L6swmxHSuRBG7cFLtKDO-250" target="L6swmxHSuRBG7cFLtKDO-229" edge="1">
          <mxGeometry width="50" height="50" relative="1" as="geometry">
            <mxPoint x="1786" y="1020" as="sourcePoint" />
            <mxPoint x="1890" y="1146" as="targetPoint" />
          </mxGeometry>
        </mxCell>
        <mxCell id="L6swmxHSuRBG7cFLtKDO-232" value="" style="rounded=0;whiteSpace=wrap;html=1;fillColor=#A8DADC;strokeColor=#457B9D;shadow=0;labelBackgroundColor=none;fontColor=#1D3557;" parent="1" vertex="1">
          <mxGeometry x="1260" y="1131" width="120" height="40" as="geometry" />
        </mxCell>
        <mxCell id="L6swmxHSuRBG7cFLtKDO-233" value="&lt;h1&gt;&lt;span style=&quot;font-size: 12px;&quot;&gt;Id&lt;/span&gt;&lt;/h1&gt;" style="ellipse;whiteSpace=wrap;html=1;fillColor=#A8DADC;strokeColor=#457B9D;shadow=0;labelBackgroundColor=none;fontColor=#1D3557;" parent="1" vertex="1">
          <mxGeometry x="1120" y="1167.5" width="60" height="26" as="geometry" />
        </mxCell>
        <mxCell id="L6swmxHSuRBG7cFLtKDO-234" value="Origin" style="ellipse;whiteSpace=wrap;html=1;fillColor=#A8DADC;strokeColor=#457B9D;shadow=0;labelBackgroundColor=none;fontColor=#1D3557;" parent="1" vertex="1">
          <mxGeometry x="1125" y="1107.5" width="60" height="36" as="geometry" />
        </mxCell>
        <mxCell id="L6swmxHSuRBG7cFLtKDO-235" value="" style="endArrow=none;html=1;rounded=0;exitX=0;exitY=1;exitDx=0;exitDy=0;entryX=1;entryY=1;entryDx=0;entryDy=0;strokeColor=#457B9D;shadow=0;labelBackgroundColor=none;fontColor=default;" parent="1" source="L6swmxHSuRBG7cFLtKDO-233" target="L6swmxHSuRBG7cFLtKDO-233" edge="1">
          <mxGeometry width="50" height="50" relative="1" as="geometry">
            <mxPoint x="1220" y="1091" as="sourcePoint" />
            <mxPoint x="1270" y="1051" as="targetPoint" />
          </mxGeometry>
        </mxCell>
        <mxCell id="L6swmxHSuRBG7cFLtKDO-236" value="" style="endArrow=none;html=1;rounded=0;exitX=0;exitY=0;exitDx=0;exitDy=0;entryX=1;entryY=0.5;entryDx=0;entryDy=0;strokeColor=#457B9D;shadow=0;labelBackgroundColor=none;fontColor=default;" parent="1" source="L6swmxHSuRBG7cFLtKDO-232" target="L6swmxHSuRBG7cFLtKDO-234" edge="1">
          <mxGeometry width="50" height="50" relative="1" as="geometry">
            <mxPoint x="1370" y="1141" as="sourcePoint" />
            <mxPoint x="1420" y="1091" as="targetPoint" />
            <Array as="points" />
          </mxGeometry>
        </mxCell>
        <mxCell id="L6swmxHSuRBG7cFLtKDO-237" value="" style="endArrow=none;html=1;rounded=0;strokeColor=#457B9D;shadow=0;entryX=1;entryY=0;entryDx=0;entryDy=0;exitX=0;exitY=0.5;exitDx=0;exitDy=0;labelBackgroundColor=none;fontColor=default;" parent="1" source="L6swmxHSuRBG7cFLtKDO-232" target="L6swmxHSuRBG7cFLtKDO-233" edge="1">
          <mxGeometry width="50" height="50" relative="1" as="geometry">
            <mxPoint x="1285" y="1176" as="sourcePoint" />
            <mxPoint x="1285" y="1296" as="targetPoint" />
            <Array as="points" />
          </mxGeometry>
        </mxCell>
        <mxCell id="L6swmxHSuRBG7cFLtKDO-238" value="route" style="text;html=1;align=center;verticalAlign=middle;whiteSpace=wrap;rounded=0;shadow=0;labelBackgroundColor=none;fontColor=#1D3557;" parent="1" vertex="1">
          <mxGeometry x="1285" y="1136" width="60" height="30" as="geometry" />
        </mxCell>
        <mxCell id="L6swmxHSuRBG7cFLtKDO-239" value="Destination" style="ellipse;whiteSpace=wrap;html=1;fillColor=#A8DADC;strokeColor=#457B9D;shadow=0;labelBackgroundColor=none;fontColor=#1D3557;" parent="1" vertex="1">
          <mxGeometry x="1155" y="1205.5" width="70" height="35" as="geometry" />
        </mxCell>
        <mxCell id="L6swmxHSuRBG7cFLtKDO-240" value="" style="endArrow=none;html=1;rounded=0;strokeColor=#457B9D;shadow=0;exitX=0;exitY=1;exitDx=0;exitDy=0;entryX=0.5;entryY=0;entryDx=0;entryDy=0;labelBackgroundColor=none;fontColor=default;" parent="1" source="L6swmxHSuRBG7cFLtKDO-232" target="L6swmxHSuRBG7cFLtKDO-239" edge="1">
          <mxGeometry width="50" height="50" relative="1" as="geometry">
            <mxPoint x="1360" y="1180" as="sourcePoint" />
            <mxPoint x="1360" y="1300" as="targetPoint" />
          </mxGeometry>
        </mxCell>
        <mxCell id="L6swmxHSuRBG7cFLtKDO-241" value="Distance" style="ellipse;whiteSpace=wrap;html=1;fillColor=#A8DADC;strokeColor=#457B9D;shadow=0;labelBackgroundColor=none;fontColor=#1D3557;" parent="1" vertex="1">
          <mxGeometry x="1230" y="1030" width="70" height="37.5" as="geometry" />
        </mxCell>
        <mxCell id="L6swmxHSuRBG7cFLtKDO-242" value="Classfication" style="ellipse;whiteSpace=wrap;html=1;fillColor=#A8DADC;strokeColor=#457B9D;shadow=0;labelBackgroundColor=none;fontColor=#1D3557;" parent="1" vertex="1">
          <mxGeometry x="1139" y="1051.5" width="80" height="30" as="geometry" />
        </mxCell>
        <mxCell id="L6swmxHSuRBG7cFLtKDO-243" value="" style="endArrow=none;html=1;rounded=0;exitX=0.25;exitY=0;exitDx=0;exitDy=0;entryX=0.924;entryY=0.811;entryDx=0;entryDy=0;strokeColor=#457B9D;shadow=0;labelBackgroundColor=none;fontColor=default;entryPerimeter=0;" parent="1" source="L6swmxHSuRBG7cFLtKDO-232" target="L6swmxHSuRBG7cFLtKDO-242" edge="1">
          <mxGeometry width="50" height="50" relative="1" as="geometry">
            <mxPoint x="1345" y="1106" as="sourcePoint" />
            <mxPoint x="1240" y="1086" as="targetPoint" />
            <Array as="points" />
          </mxGeometry>
        </mxCell>
        <mxCell id="L6swmxHSuRBG7cFLtKDO-244" value="" style="endArrow=none;html=1;rounded=0;exitX=0.467;exitY=-0.01;exitDx=0;exitDy=0;entryX=0.599;entryY=0.98;entryDx=0;entryDy=0;strokeColor=#457B9D;shadow=0;labelBackgroundColor=none;fontColor=default;entryPerimeter=0;exitPerimeter=0;" parent="1" source="L6swmxHSuRBG7cFLtKDO-232" target="L6swmxHSuRBG7cFLtKDO-241" edge="1">
          <mxGeometry width="50" height="50" relative="1" as="geometry">
            <mxPoint x="1430" y="1121" as="sourcePoint" />
            <mxPoint x="1325" y="1101" as="targetPoint" />
            <Array as="points" />
          </mxGeometry>
        </mxCell>
        <mxCell id="L6swmxHSuRBG7cFLtKDO-250" value="" style="rounded=0;whiteSpace=wrap;html=1;fillColor=#A8DADC;strokeColor=#457B9D;labelBackgroundColor=none;fontColor=#1D3557;" parent="1" vertex="1">
          <mxGeometry x="1765" y="1030" width="120" height="60" as="geometry" />
        </mxCell>
        <mxCell id="L6swmxHSuRBG7cFLtKDO-251" value="aircraft" style="text;html=1;align=center;verticalAlign=middle;whiteSpace=wrap;rounded=0;labelBackgroundColor=none;fontColor=#1D3557;" parent="1" vertex="1">
          <mxGeometry x="1795" y="1045" width="60" height="30" as="geometry" />
        </mxCell>
        <mxCell id="L6swmxHSuRBG7cFLtKDO-252" value="" style="rhombus;whiteSpace=wrap;html=1;labelBackgroundColor=none;fillColor=#A8DADC;strokeColor=#457B9D;fontColor=#1D3557;" parent="1" vertex="1">
          <mxGeometry x="1846.5" y="1125.5" width="80" height="80" as="geometry" />
        </mxCell>
        <mxCell id="L6swmxHSuRBG7cFLtKDO-253" value="" style="endArrow=none;html=1;rounded=0;entryX=0.5;entryY=1;entryDx=0;entryDy=0;exitX=0;exitY=0.5;exitDx=0;exitDy=0;labelBackgroundColor=none;strokeColor=#457B9D;fontColor=default;" parent="1" source="L6swmxHSuRBG7cFLtKDO-252" target="L6swmxHSuRBG7cFLtKDO-250" edge="1">
          <mxGeometry width="50" height="50" relative="1" as="geometry">
            <mxPoint x="1735" y="1170" as="sourcePoint" />
            <mxPoint x="1828" y="1100" as="targetPoint" />
          </mxGeometry>
        </mxCell>
        <mxCell id="L6swmxHSuRBG7cFLtKDO-254" value="" style="endArrow=none;html=1;rounded=0;entryX=0.949;entryY=0.554;entryDx=0;entryDy=0;exitX=0.003;exitY=0.393;exitDx=0;exitDy=0;labelBackgroundColor=none;strokeColor=#457B9D;fontColor=default;entryPerimeter=0;exitPerimeter=0;" parent="1" source="L6swmxHSuRBG7cFLtKDO-132" target="L6swmxHSuRBG7cFLtKDO-252" edge="1">
          <mxGeometry width="50" height="50" relative="1" as="geometry">
            <mxPoint x="1850" y="1290" as="sourcePoint" />
            <mxPoint x="1900" y="1240" as="targetPoint" />
          </mxGeometry>
        </mxCell>
        <mxCell id="L6swmxHSuRBG7cFLtKDO-255" value="own" style="text;html=1;align=center;verticalAlign=middle;whiteSpace=wrap;rounded=0;labelBackgroundColor=none;fontColor=#1D3557;" parent="1" vertex="1">
          <mxGeometry x="1856.5" y="1151.5" width="60" height="30" as="geometry" />
        </mxCell>
        <mxCell id="L6swmxHSuRBG7cFLtKDO-257" value="" style="rhombus;whiteSpace=wrap;html=1;labelBackgroundColor=none;fillColor=#A8DADC;strokeColor=#457B9D;fontColor=#1D3557;" parent="1" vertex="1">
          <mxGeometry x="1515" y="1045" width="80" height="80" as="geometry" />
        </mxCell>
        <mxCell id="L6swmxHSuRBG7cFLtKDO-258" value="" style="endArrow=none;html=1;rounded=0;entryX=0;entryY=0.5;entryDx=0;entryDy=0;exitX=1;exitY=0.5;exitDx=0;exitDy=0;labelBackgroundColor=none;strokeColor=#457B9D;fontColor=default;" parent="1" source="L6swmxHSuRBG7cFLtKDO-257" target="L6swmxHSuRBG7cFLtKDO-250" edge="1">
          <mxGeometry width="50" height="50" relative="1" as="geometry">
            <mxPoint x="1655" y="1110" as="sourcePoint" />
            <mxPoint x="1743" y="1060" as="targetPoint" />
          </mxGeometry>
        </mxCell>
        <mxCell id="L6swmxHSuRBG7cFLtKDO-259" value="" style="endArrow=none;html=1;rounded=0;entryX=0;entryY=0.5;entryDx=0;entryDy=0;exitX=1;exitY=0.5;exitDx=0;exitDy=0;labelBackgroundColor=none;strokeColor=#457B9D;fontColor=default;" parent="1" source="L6swmxHSuRBG7cFLtKDO-232" target="L6swmxHSuRBG7cFLtKDO-257" edge="1">
          <mxGeometry width="50" height="50" relative="1" as="geometry">
            <mxPoint x="1605" y="1240" as="sourcePoint" />
            <mxPoint x="1655" y="1190" as="targetPoint" />
          </mxGeometry>
        </mxCell>
        <mxCell id="L6swmxHSuRBG7cFLtKDO-260" value="assign" style="text;html=1;align=center;verticalAlign=middle;whiteSpace=wrap;rounded=0;labelBackgroundColor=none;fontColor=#1D3557;" parent="1" vertex="1">
          <mxGeometry x="1525" y="1066.5" width="60" height="30" as="geometry" />
        </mxCell>
        <mxCell id="L6swmxHSuRBG7cFLtKDO-261" value="1" style="text;html=1;align=center;verticalAlign=middle;whiteSpace=wrap;rounded=0;labelBackgroundColor=none;fontColor=#1D3557;" parent="1" vertex="1">
          <mxGeometry x="1950" y="1237.5" width="20" height="15" as="geometry" />
        </mxCell>
        <mxCell id="L6swmxHSuRBG7cFLtKDO-264" value="M" style="text;html=1;align=center;verticalAlign=middle;whiteSpace=wrap;rounded=0;labelBackgroundColor=none;fontColor=#1D3557;" parent="1" vertex="1">
          <mxGeometry x="1846.5" y="1091.5" width="25" height="16" as="geometry" />
        </mxCell>
        <mxCell id="L6swmxHSuRBG7cFLtKDO-265" value="M" style="text;html=1;align=center;verticalAlign=middle;whiteSpace=wrap;rounded=0;labelBackgroundColor=none;fontColor=#1D3557;" parent="1" vertex="1">
          <mxGeometry x="1355" y="1105" width="60" height="30" as="geometry" />
        </mxCell>
        <mxCell id="L6swmxHSuRBG7cFLtKDO-266" value="M" style="text;html=1;align=center;verticalAlign=middle;whiteSpace=wrap;rounded=0;labelBackgroundColor=none;fontColor=#1D3557;" parent="1" vertex="1">
          <mxGeometry x="1693" y="1030" width="60" height="30" as="geometry" />
        </mxCell>
        <mxCell id="L6swmxHSuRBG7cFLtKDO-267" value="PassengerNum" style="ellipse;whiteSpace=wrap;html=1;fillColor=#A8DADC;strokeColor=#457B9D;shadow=0;labelBackgroundColor=none;fontColor=#1D3557;" parent="1" vertex="1">
          <mxGeometry x="1495" y="910" width="90" height="40" as="geometry" />
        </mxCell>
        <mxCell id="L6swmxHSuRBG7cFLtKDO-268" value="Departure&lt;div&gt;DT&lt;/div&gt;" style="ellipse;whiteSpace=wrap;html=1;fillColor=#A8DADC;strokeColor=#457B9D;shadow=0;labelBackgroundColor=none;fontColor=#1D3557;" parent="1" vertex="1">
          <mxGeometry x="1425" y="990" width="60" height="40" as="geometry" />
        </mxCell>
        <mxCell id="L6swmxHSuRBG7cFLtKDO-269" value="Price/Passenger" style="ellipse;whiteSpace=wrap;html=1;fillColor=#A8DADC;strokeColor=#457B9D;shadow=0;labelBackgroundColor=none;fontColor=#1D3557;" parent="1" vertex="1">
          <mxGeometry x="1440" y="955" width="100" height="30" as="geometry" />
        </mxCell>
        <mxCell id="L6swmxHSuRBG7cFLtKDO-270" value="Arrival DT" style="ellipse;whiteSpace=wrap;html=1;fillColor=#A8DADC;strokeColor=#457B9D;shadow=0;labelBackgroundColor=none;fontColor=#1D3557;" parent="1" vertex="1">
          <mxGeometry x="1398" y="1032.5" width="54" height="35" as="geometry" />
        </mxCell>
        <mxCell id="L6swmxHSuRBG7cFLtKDO-271" value="" style="endArrow=none;html=1;rounded=0;strokeColor=#457B9D;shadow=0;exitX=0.498;exitY=0.013;exitDx=0;exitDy=0;entryX=0.5;entryY=1;entryDx=0;entryDy=0;labelBackgroundColor=none;fontColor=default;exitPerimeter=0;" parent="1" source="L6swmxHSuRBG7cFLtKDO-257" target="L6swmxHSuRBG7cFLtKDO-267" edge="1">
          <mxGeometry width="50" height="50" relative="1" as="geometry">
            <mxPoint x="1624" y="977.5" as="sourcePoint" />
            <mxPoint x="1465" y="842.5" as="targetPoint" />
          </mxGeometry>
        </mxCell>
        <mxCell id="L6swmxHSuRBG7cFLtKDO-272" value="" style="endArrow=none;html=1;rounded=0;strokeColor=#457B9D;shadow=0;exitX=0.398;exitY=0.109;exitDx=0;exitDy=0;entryX=0.5;entryY=1;entryDx=0;entryDy=0;labelBackgroundColor=none;fontColor=default;exitPerimeter=0;" parent="1" source="L6swmxHSuRBG7cFLtKDO-257" target="L6swmxHSuRBG7cFLtKDO-269" edge="1">
          <mxGeometry width="50" height="50" relative="1" as="geometry">
            <mxPoint x="1460" y="1050" as="sourcePoint" />
            <mxPoint x="1410" y="797" as="targetPoint" />
          </mxGeometry>
        </mxCell>
        <mxCell id="L6swmxHSuRBG7cFLtKDO-273" value="" style="endArrow=none;html=1;rounded=0;strokeColor=#457B9D;shadow=0;entryX=1;entryY=0.5;entryDx=0;entryDy=0;labelBackgroundColor=none;fontColor=default;" parent="1" source="L6swmxHSuRBG7cFLtKDO-257" target="L6swmxHSuRBG7cFLtKDO-268" edge="1">
          <mxGeometry width="50" height="50" relative="1" as="geometry">
            <mxPoint x="1595" y="1085" as="sourcePoint" />
            <mxPoint x="1545" y="832" as="targetPoint" />
          </mxGeometry>
        </mxCell>
        <mxCell id="L6swmxHSuRBG7cFLtKDO-274" value="" style="endArrow=none;html=1;rounded=0;strokeColor=#457B9D;shadow=0;exitX=0.187;exitY=0.315;exitDx=0;exitDy=0;entryX=1;entryY=0.5;entryDx=0;entryDy=0;labelBackgroundColor=none;fontColor=default;exitPerimeter=0;" parent="1" source="L6swmxHSuRBG7cFLtKDO-257" target="L6swmxHSuRBG7cFLtKDO-270" edge="1">
          <mxGeometry width="50" height="50" relative="1" as="geometry">
            <mxPoint x="1605" y="1095" as="sourcePoint" />
            <mxPoint x="1555" y="842" as="targetPoint" />
          </mxGeometry>
        </mxCell>
        <mxCell id="L6swmxHSuRBG7cFLtKDO-276" value="" style="endArrow=none;html=1;rounded=0;strokeColor=#457B9D;shadow=0;exitX=0.577;exitY=0.084;exitDx=0;exitDy=0;entryX=0.5;entryY=1;entryDx=0;entryDy=0;labelBackgroundColor=none;fontColor=default;exitPerimeter=0;" parent="1" source="L6swmxHSuRBG7cFLtKDO-257" target="L6swmxHSuRBG7cFLtKDO-330" edge="1">
          <mxGeometry width="50" height="50" relative="1" as="geometry">
            <mxPoint x="1585" y="1075" as="sourcePoint" />
            <mxPoint x="1512.17" y="736.6500000000001" as="targetPoint" />
          </mxGeometry>
        </mxCell>
        <mxCell id="L6swmxHSuRBG7cFLtKDO-278" value="" style="rounded=0;whiteSpace=wrap;html=1;fillColor=#A8DADC;strokeColor=#457B9D;shadow=0;labelBackgroundColor=none;fontColor=#1D3557;" parent="1" vertex="1">
          <mxGeometry x="1425" y="1330" width="145" height="70" as="geometry" />
        </mxCell>
        <mxCell id="L6swmxHSuRBG7cFLtKDO-279" value="crew" style="rounded=0;whiteSpace=wrap;html=1;fillColor=#A8DADC;fontColor=#1D3557;strokeColor=#457B9D;labelBackgroundColor=none;" parent="1" vertex="1">
          <mxGeometry x="1440" y="1340" width="120" height="50" as="geometry" />
        </mxCell>
        <mxCell id="L6swmxHSuRBG7cFLtKDO-281" value="" style="endArrow=none;html=1;rounded=0;entryX=0.25;entryY=1;entryDx=0;entryDy=0;exitX=0.5;exitY=0;exitDx=0;exitDy=0;labelBackgroundColor=none;strokeColor=#457B9D;fontColor=default;" parent="1" source="L6swmxHSuRBG7cFLtKDO-283" target="L6swmxHSuRBG7cFLtKDO-250" edge="1">
          <mxGeometry width="50" height="50" relative="1" as="geometry">
            <mxPoint x="1555" y="1210" as="sourcePoint" />
            <mxPoint x="1605" y="1160" as="targetPoint" />
          </mxGeometry>
        </mxCell>
        <mxCell id="L6swmxHSuRBG7cFLtKDO-282" value="" style="endArrow=none;html=1;rounded=0;entryX=0.5;entryY=1;entryDx=0;entryDy=0;exitX=0.5;exitY=0;exitDx=0;exitDy=0;labelBackgroundColor=none;strokeColor=#457B9D;fontColor=default;" parent="1" source="L6swmxHSuRBG7cFLtKDO-278" target="L6swmxHSuRBG7cFLtKDO-283" edge="1">
          <mxGeometry width="50" height="50" relative="1" as="geometry">
            <mxPoint x="1575" y="1280" as="sourcePoint" />
            <mxPoint x="1625" y="1230" as="targetPoint" />
          </mxGeometry>
        </mxCell>
        <mxCell id="L6swmxHSuRBG7cFLtKDO-283" value="" style="rhombus;whiteSpace=wrap;html=1;labelBackgroundColor=none;fillColor=#A8DADC;strokeColor=#457B9D;fontColor=#1D3557;" parent="1" vertex="1">
          <mxGeometry x="1625" y="1170" width="115" height="105" as="geometry" />
        </mxCell>
        <mxCell id="L6swmxHSuRBG7cFLtKDO-284" value="assign" style="rhombus;whiteSpace=wrap;html=1;labelBackgroundColor=none;fillColor=#A8DADC;strokeColor=#457B9D;fontColor=#1D3557;" parent="1" vertex="1">
          <mxGeometry x="1643" y="1183" width="80" height="80" as="geometry" />
        </mxCell>
        <mxCell id="L6swmxHSuRBG7cFLtKDO-285" value="" style="endArrow=none;html=1;rounded=0;entryX=0.458;entryY=0.961;entryDx=0;entryDy=0;entryPerimeter=0;exitX=0.416;exitY=-0.001;exitDx=0;exitDy=0;exitPerimeter=0;labelBackgroundColor=none;strokeColor=#457B9D;fontColor=default;" parent="1" source="L6swmxHSuRBG7cFLtKDO-278" target="L6swmxHSuRBG7cFLtKDO-283" edge="1">
          <mxGeometry width="50" height="50" relative="1" as="geometry">
            <mxPoint x="1585" y="1310" as="sourcePoint" />
            <mxPoint x="1635" y="1260" as="targetPoint" />
          </mxGeometry>
        </mxCell>
        <mxCell id="L6swmxHSuRBG7cFLtKDO-289" value="M" style="text;html=1;align=center;verticalAlign=middle;whiteSpace=wrap;rounded=0;labelBackgroundColor=none;fontColor=#1D3557;" parent="1" vertex="1">
          <mxGeometry x="1750" y="1086.5" width="20" height="20" as="geometry" />
        </mxCell>
        <mxCell id="L6swmxHSuRBG7cFLtKDO-290" value="1" style="text;html=1;align=center;verticalAlign=middle;whiteSpace=wrap;rounded=0;labelBackgroundColor=none;fontColor=#1D3557;" parent="1" vertex="1">
          <mxGeometry x="1467.5" y="1315.5" width="25" height="10" as="geometry" />
        </mxCell>
        <mxCell id="L6swmxHSuRBG7cFLtKDO-291" value="assis_pilot" style="ellipse;whiteSpace=wrap;html=1;fillColor=#A8DADC;strokeColor=#457B9D;shadow=0;labelBackgroundColor=none;fontColor=#1D3557;" parent="1" vertex="1">
          <mxGeometry x="1310" y="1400" width="70" height="30" as="geometry" />
        </mxCell>
        <mxCell id="L6swmxHSuRBG7cFLtKDO-293" value="major_pilot" style="ellipse;whiteSpace=wrap;html=1;fillColor=#A8DADC;strokeColor=#457B9D;shadow=0;labelBackgroundColor=none;fontColor=#1D3557;" parent="1" vertex="1">
          <mxGeometry x="1370" y="1430" width="70" height="25" as="geometry" />
        </mxCell>
        <mxCell id="L6swmxHSuRBG7cFLtKDO-294" value="hottess1" style="ellipse;whiteSpace=wrap;html=1;fillColor=#A8DADC;strokeColor=#457B9D;shadow=0;labelBackgroundColor=none;fontColor=#1D3557;" parent="1" vertex="1">
          <mxGeometry x="1445" y="1440" width="70" height="20" as="geometry" />
        </mxCell>
        <mxCell id="L6swmxHSuRBG7cFLtKDO-296" value="" style="endArrow=none;html=1;rounded=0;exitX=0.962;exitY=0.34;exitDx=0;exitDy=0;entryX=0;entryY=0.5;entryDx=0;entryDy=0;strokeColor=#457B9D;shadow=0;exitPerimeter=0;labelBackgroundColor=none;fontColor=default;" parent="1" source="L6swmxHSuRBG7cFLtKDO-291" target="L6swmxHSuRBG7cFLtKDO-278" edge="1">
          <mxGeometry width="50" height="50" relative="1" as="geometry">
            <mxPoint x="1379.5" y="1438" as="sourcePoint" />
            <mxPoint x="1390.5" y="1365" as="targetPoint" />
            <Array as="points" />
          </mxGeometry>
        </mxCell>
        <mxCell id="L6swmxHSuRBG7cFLtKDO-297" value="" style="endArrow=none;html=1;rounded=0;exitX=0.5;exitY=0;exitDx=0;exitDy=0;entryX=0.119;entryY=0.988;entryDx=0;entryDy=0;strokeColor=#457B9D;shadow=0;entryPerimeter=0;labelBackgroundColor=none;fontColor=default;" parent="1" source="L6swmxHSuRBG7cFLtKDO-293" target="L6swmxHSuRBG7cFLtKDO-278" edge="1">
          <mxGeometry width="50" height="50" relative="1" as="geometry">
            <mxPoint x="1425" y="1455" as="sourcePoint" />
            <mxPoint x="1509" y="1398" as="targetPoint" />
            <Array as="points" />
          </mxGeometry>
        </mxCell>
        <mxCell id="L6swmxHSuRBG7cFLtKDO-298" value="" style="endArrow=none;html=1;rounded=0;exitX=0.5;exitY=0;exitDx=0;exitDy=0;entryX=0.25;entryY=1;entryDx=0;entryDy=0;strokeColor=#457B9D;shadow=0;labelBackgroundColor=none;fontColor=default;" parent="1" source="L6swmxHSuRBG7cFLtKDO-294" target="L6swmxHSuRBG7cFLtKDO-278" edge="1">
          <mxGeometry width="50" height="50" relative="1" as="geometry">
            <mxPoint x="1495" y="1462" as="sourcePoint" />
            <mxPoint x="1579" y="1405" as="targetPoint" />
            <Array as="points" />
          </mxGeometry>
        </mxCell>
        <mxCell id="L6swmxHSuRBG7cFLtKDO-299" value="" style="endArrow=none;html=1;rounded=0;entryX=0.295;entryY=1.007;entryDx=0;entryDy=0;entryPerimeter=0;exitX=0.543;exitY=0.036;exitDx=0;exitDy=0;exitPerimeter=0;labelBackgroundColor=none;strokeColor=#457B9D;fontColor=default;" parent="1" source="L6swmxHSuRBG7cFLtKDO-283" target="L6swmxHSuRBG7cFLtKDO-250" edge="1">
          <mxGeometry width="50" height="50" relative="1" as="geometry">
            <mxPoint x="1735" y="1180" as="sourcePoint" />
            <mxPoint x="1785" y="1130" as="targetPoint" />
          </mxGeometry>
        </mxCell>
        <mxCell id="L6swmxHSuRBG7cFLtKDO-300" value="transaction" style="rounded=0;whiteSpace=wrap;html=1;fillColor=#A8DADC;strokeColor=#457B9D;shadow=0;labelBackgroundColor=none;fontColor=#1D3557;" parent="1" vertex="1">
          <mxGeometry x="1687.5" y="1490" width="140" height="40" as="geometry" />
        </mxCell>
        <mxCell id="L6swmxHSuRBG7cFLtKDO-302" value="work" style="rhombus;whiteSpace=wrap;html=1;labelBackgroundColor=none;fillColor=#A8DADC;strokeColor=#457B9D;fontColor=#1D3557;" parent="1" vertex="1">
          <mxGeometry x="2020" y="1357.5" width="80" height="80" as="geometry" />
        </mxCell>
        <mxCell id="L6swmxHSuRBG7cFLtKDO-303" value="" style="endArrow=none;html=1;rounded=0;entryX=0.5;entryY=1;entryDx=0;entryDy=0;exitX=0.5;exitY=0;exitDx=0;exitDy=0;labelBackgroundColor=none;strokeColor=#457B9D;fontColor=default;" parent="1" source="L6swmxHSuRBG7cFLtKDO-302" target="L6swmxHSuRBG7cFLtKDO-132" edge="1">
          <mxGeometry width="50" height="50" relative="1" as="geometry">
            <mxPoint x="2015" y="1370" as="sourcePoint" />
            <mxPoint x="2065" y="1320" as="targetPoint" />
          </mxGeometry>
        </mxCell>
        <mxCell id="L6swmxHSuRBG7cFLtKDO-304" value="" style="endArrow=none;html=1;rounded=0;entryX=0.5;entryY=1;entryDx=0;entryDy=0;exitX=0.5;exitY=0;exitDx=0;exitDy=0;labelBackgroundColor=none;strokeColor=#457B9D;fontColor=default;" parent="1" source="L6swmxHSuRBG7cFLtKDO-146" target="L6swmxHSuRBG7cFLtKDO-302" edge="1">
          <mxGeometry width="50" height="50" relative="1" as="geometry">
            <mxPoint x="2005" y="1650" as="sourcePoint" />
            <mxPoint x="1990" y="1510" as="targetPoint" />
          </mxGeometry>
        </mxCell>
        <mxCell id="L6swmxHSuRBG7cFLtKDO-305" value="" style="endArrow=none;html=1;rounded=0;entryX=0.433;entryY=0.945;entryDx=0;entryDy=0;entryPerimeter=0;exitX=0.449;exitY=0.02;exitDx=0;exitDy=0;exitPerimeter=0;labelBackgroundColor=none;strokeColor=#457B9D;fontColor=default;" parent="1" source="L6swmxHSuRBG7cFLtKDO-146" target="L6swmxHSuRBG7cFLtKDO-302" edge="1">
          <mxGeometry width="50" height="50" relative="1" as="geometry">
            <mxPoint x="1965" y="1550" as="sourcePoint" />
            <mxPoint x="2015" y="1500" as="targetPoint" />
          </mxGeometry>
        </mxCell>
        <mxCell id="L6swmxHSuRBG7cFLtKDO-306" value="1" style="text;html=1;align=center;verticalAlign=middle;whiteSpace=wrap;rounded=0;labelBackgroundColor=none;fontColor=#1D3557;" parent="1" vertex="1">
          <mxGeometry x="2012.5" y="1260" width="15" height="15.5" as="geometry" />
        </mxCell>
        <mxCell id="L6swmxHSuRBG7cFLtKDO-307" value="M" style="text;html=1;align=center;verticalAlign=middle;whiteSpace=wrap;rounded=0;labelBackgroundColor=none;fontColor=#1D3557;" parent="1" vertex="1">
          <mxGeometry x="1970" y="1516" width="20" height="15" as="geometry" />
        </mxCell>
        <mxCell id="L6swmxHSuRBG7cFLtKDO-308" value="Id" style="ellipse;whiteSpace=wrap;html=1;fillColor=#A8DADC;strokeColor=#457B9D;shadow=0;labelBackgroundColor=none;fontColor=#1D3557;" parent="1" vertex="1">
          <mxGeometry x="1585" y="1540.5" width="70" height="40" as="geometry" />
        </mxCell>
        <mxCell id="L6swmxHSuRBG7cFLtKDO-309" value="" style="endArrow=none;html=1;rounded=0;entryX=1;entryY=1;entryDx=0;entryDy=0;exitX=0;exitY=1;exitDx=0;exitDy=0;labelBackgroundColor=none;strokeColor=#457B9D;fontColor=default;" parent="1" source="L6swmxHSuRBG7cFLtKDO-308" target="L6swmxHSuRBG7cFLtKDO-308" edge="1">
          <mxGeometry width="50" height="50" relative="1" as="geometry">
            <mxPoint x="1549.5" y="1566" as="sourcePoint" />
            <mxPoint x="1599.5" y="1516" as="targetPoint" />
          </mxGeometry>
        </mxCell>
        <mxCell id="L6swmxHSuRBG7cFLtKDO-310" value="date" style="ellipse;whiteSpace=wrap;html=1;fillColor=#A8DADC;strokeColor=#457B9D;shadow=0;labelBackgroundColor=none;fontColor=#1D3557;" parent="1" vertex="1">
          <mxGeometry x="1649.5" y="1588" width="70" height="30" as="geometry" />
        </mxCell>
        <mxCell id="L6swmxHSuRBG7cFLtKDO-311" value="money" style="ellipse;whiteSpace=wrap;html=1;fillColor=#A8DADC;strokeColor=#457B9D;shadow=0;labelBackgroundColor=none;fontColor=#1D3557;" parent="1" vertex="1">
          <mxGeometry x="1719.5" y="1606" width="75" height="34" as="geometry" />
        </mxCell>
        <mxCell id="L6swmxHSuRBG7cFLtKDO-312" value="description" style="ellipse;whiteSpace=wrap;html=1;fillColor=#A8DADC;strokeColor=#457B9D;shadow=0;labelBackgroundColor=none;fontColor=#1D3557;" parent="1" vertex="1">
          <mxGeometry x="1785.5" y="1586" width="78" height="34" as="geometry" />
        </mxCell>
        <mxCell id="L6swmxHSuRBG7cFLtKDO-313" value="" style="endArrow=none;html=1;rounded=0;exitX=1;exitY=0;exitDx=0;exitDy=0;entryX=0;entryY=0.75;entryDx=0;entryDy=0;strokeColor=#457B9D;shadow=0;labelBackgroundColor=none;fontColor=default;" parent="1" source="L6swmxHSuRBG7cFLtKDO-308" target="L6swmxHSuRBG7cFLtKDO-300" edge="1">
          <mxGeometry width="50" height="50" relative="1" as="geometry">
            <mxPoint x="1562.5" y="1572" as="sourcePoint" />
            <mxPoint x="1646.5" y="1515" as="targetPoint" />
            <Array as="points" />
          </mxGeometry>
        </mxCell>
        <mxCell id="L6swmxHSuRBG7cFLtKDO-314" value="" style="endArrow=none;html=1;rounded=0;exitX=1;exitY=0;exitDx=0;exitDy=0;entryX=0.159;entryY=1.033;entryDx=0;entryDy=0;strokeColor=#457B9D;shadow=0;entryPerimeter=0;labelBackgroundColor=none;fontColor=default;" parent="1" source="L6swmxHSuRBG7cFLtKDO-310" target="L6swmxHSuRBG7cFLtKDO-300" edge="1">
          <mxGeometry width="50" height="50" relative="1" as="geometry">
            <mxPoint x="1597" y="1638.5" as="sourcePoint" />
            <mxPoint x="1698" y="1571.5" as="targetPoint" />
            <Array as="points" />
          </mxGeometry>
        </mxCell>
        <mxCell id="L6swmxHSuRBG7cFLtKDO-315" value="" style="endArrow=none;html=1;rounded=0;exitX=0.5;exitY=0;exitDx=0;exitDy=0;entryX=0.5;entryY=1;entryDx=0;entryDy=0;strokeColor=#457B9D;shadow=0;labelBackgroundColor=none;fontColor=default;" parent="1" source="L6swmxHSuRBG7cFLtKDO-311" target="L6swmxHSuRBG7cFLtKDO-300" edge="1">
          <mxGeometry width="50" height="50" relative="1" as="geometry">
            <mxPoint x="1611.5" y="1667" as="sourcePoint" />
            <mxPoint x="1707.5" y="1543" as="targetPoint" />
            <Array as="points" />
          </mxGeometry>
        </mxCell>
        <mxCell id="L6swmxHSuRBG7cFLtKDO-316" value="" style="endArrow=none;html=1;rounded=0;exitX=0.5;exitY=0;exitDx=0;exitDy=0;entryX=0.914;entryY=1.013;entryDx=0;entryDy=0;strokeColor=#457B9D;shadow=0;entryPerimeter=0;labelBackgroundColor=none;fontColor=default;" parent="1" source="L6swmxHSuRBG7cFLtKDO-312" target="L6swmxHSuRBG7cFLtKDO-300" edge="1">
          <mxGeometry width="50" height="50" relative="1" as="geometry">
            <mxPoint x="1699.5" y="1690" as="sourcePoint" />
            <mxPoint x="1762.5" y="1540" as="targetPoint" />
            <Array as="points" />
          </mxGeometry>
        </mxCell>
        <mxCell id="L6swmxHSuRBG7cFLtKDO-318" value="has" style="rhombus;whiteSpace=wrap;html=1;labelBackgroundColor=none;fillColor=#A8DADC;strokeColor=#457B9D;fontColor=#1D3557;" parent="1" vertex="1">
          <mxGeometry x="1830" y="1320" width="80" height="80" as="geometry" />
        </mxCell>
        <mxCell id="L6swmxHSuRBG7cFLtKDO-319" value="" style="endArrow=none;html=1;rounded=0;entryX=0.129;entryY=1.007;entryDx=0;entryDy=0;exitX=0.5;exitY=0;exitDx=0;exitDy=0;labelBackgroundColor=none;strokeColor=#457B9D;fontColor=default;entryPerimeter=0;" parent="1" source="L6swmxHSuRBG7cFLtKDO-318" target="L6swmxHSuRBG7cFLtKDO-132" edge="1">
          <mxGeometry width="50" height="50" relative="1" as="geometry">
            <mxPoint x="1827.5" y="1360" as="sourcePoint" />
            <mxPoint x="1935" y="1310" as="targetPoint" />
          </mxGeometry>
        </mxCell>
        <mxCell id="L6swmxHSuRBG7cFLtKDO-321" value="" style="endArrow=none;html=1;rounded=0;entryX=0.5;entryY=1;entryDx=0;entryDy=0;exitX=0.576;exitY=-0.006;exitDx=0;exitDy=0;exitPerimeter=0;labelBackgroundColor=none;strokeColor=#457B9D;fontColor=default;" parent="1" source="L6swmxHSuRBG7cFLtKDO-300" target="L6swmxHSuRBG7cFLtKDO-318" edge="1">
          <mxGeometry width="50" height="50" relative="1" as="geometry">
            <mxPoint x="1685" y="1530" as="sourcePoint" />
            <mxPoint x="1818.6449999999995" y="1458.5949999999998" as="targetPoint" />
          </mxGeometry>
        </mxCell>
        <mxCell id="L6swmxHSuRBG7cFLtKDO-322" value="1" style="text;html=1;align=center;verticalAlign=middle;whiteSpace=wrap;rounded=0;labelBackgroundColor=none;fontColor=#1D3557;" parent="1" vertex="1">
          <mxGeometry x="1955" y="1260" width="20" height="10" as="geometry" />
        </mxCell>
        <mxCell id="L6swmxHSuRBG7cFLtKDO-325" value="M" style="text;html=1;align=center;verticalAlign=middle;whiteSpace=wrap;rounded=0;labelBackgroundColor=none;fontColor=#1D3557;" parent="1" vertex="1">
          <mxGeometry x="195" y="150" width="60" height="30" as="geometry" />
        </mxCell>
        <mxCell id="L6swmxHSuRBG7cFLtKDO-330" value="SpentTime" style="ellipse;whiteSpace=wrap;html=1;align=center;dashed=1;fillColor=#A8DADC;strokeColor=#457B9D;labelBackgroundColor=none;fontColor=#1D3557;" parent="1" vertex="1">
          <mxGeometry x="1560" y="955" width="77" height="35" as="geometry" />
        </mxCell>
        <mxCell id="kztWRyVH7MpdFEdJZsV--1" value="N" style="text;html=1;align=center;verticalAlign=middle;whiteSpace=wrap;rounded=0;labelBackgroundColor=none;fontColor=#1D3557;" parent="1" vertex="1">
          <mxGeometry x="118.13" y="1233.5" width="60" height="30" as="geometry" />
        </mxCell>
        <mxCell id="kztWRyVH7MpdFEdJZsV--2" value="M" style="text;html=1;align=center;verticalAlign=middle;whiteSpace=wrap;rounded=0;labelBackgroundColor=none;fontColor=#1D3557;" parent="1" vertex="1">
          <mxGeometry x="58.129999999999995" y="1295.5" width="60" height="30" as="geometry" />
        </mxCell>
        <mxCell id="kztWRyVH7MpdFEdJZsV--3" value="K" style="text;html=1;align=center;verticalAlign=middle;whiteSpace=wrap;rounded=0;labelBackgroundColor=none;fontColor=#1D3557;" parent="1" vertex="1">
          <mxGeometry x="115.63" y="1360.5" width="60" height="30" as="geometry" />
        </mxCell>
        <mxCell id="kztWRyVH7MpdFEdJZsV--7" value="hottess1" style="ellipse;whiteSpace=wrap;html=1;fillColor=#A8DADC;strokeColor=#457B9D;shadow=0;labelBackgroundColor=none;fontColor=#1D3557;" parent="1" vertex="1">
          <mxGeometry x="1522.5" y="1437.5" width="70" height="25" as="geometry" />
        </mxCell>
        <mxCell id="kztWRyVH7MpdFEdJZsV--8" value="" style="endArrow=none;html=1;rounded=0;exitX=0;exitY=0;exitDx=0;exitDy=0;entryX=0.5;entryY=1;entryDx=0;entryDy=0;strokeColor=#457B9D;shadow=0;labelBackgroundColor=none;fontColor=default;" parent="1" source="kztWRyVH7MpdFEdJZsV--7" target="L6swmxHSuRBG7cFLtKDO-278" edge="1">
          <mxGeometry width="50" height="50" relative="1" as="geometry">
            <mxPoint x="1558" y="1480" as="sourcePoint" />
            <mxPoint x="1569" y="1411" as="targetPoint" />
            <Array as="points" />
          </mxGeometry>
        </mxCell>
        <mxCell id="kztWRyVH7MpdFEdJZsV--12" value="" style="endArrow=none;html=1;rounded=0;entryX=0.54;entryY=1.005;entryDx=0;entryDy=0;exitX=0.583;exitY=0.075;exitDx=0;exitDy=0;labelBackgroundColor=none;strokeColor=#457B9D;fontColor=default;entryPerimeter=0;exitPerimeter=0;" parent="1" source="L6swmxHSuRBG7cFLtKDO-302" target="L6swmxHSuRBG7cFLtKDO-132" edge="1">
          <mxGeometry width="50" height="50" relative="1" as="geometry">
            <mxPoint x="2055" y="1410" as="sourcePoint" />
            <mxPoint x="2040" y="1270" as="targetPoint" />
          </mxGeometry>
        </mxCell>
        <mxCell id="kztWRyVH7MpdFEdJZsV--13" value="M" style="text;html=1;align=center;verticalAlign=middle;whiteSpace=wrap;rounded=0;labelBackgroundColor=none;fontColor=#1D3557;" parent="1" vertex="1">
          <mxGeometry x="1725.5" y="1430" width="30" height="20" as="geometry" />
        </mxCell>
        <mxCell id="kztWRyVH7MpdFEdJZsV--14" value="" style="endArrow=none;html=1;rounded=0;entryX=0.446;entryY=0.964;entryDx=0;entryDy=0;exitX=0.525;exitY=0.005;exitDx=0;exitDy=0;labelBackgroundColor=none;strokeColor=#457B9D;fontColor=default;entryPerimeter=0;exitPerimeter=0;" parent="1" source="L6swmxHSuRBG7cFLtKDO-300" target="L6swmxHSuRBG7cFLtKDO-318" edge="1">
          <mxGeometry width="50" height="50" relative="1" as="geometry">
            <mxPoint x="1685" y="1589" as="sourcePoint" />
            <mxPoint x="1838" y="1463" as="targetPoint" />
          </mxGeometry>
        </mxCell>
        <mxCell id="kztWRyVH7MpdFEdJZsV--16" value="" style="endArrow=none;html=1;rounded=0;entryX=0.537;entryY=1;entryDx=0;entryDy=0;exitX=0.066;exitY=0.45;exitDx=0;exitDy=0;labelBackgroundColor=none;strokeColor=#457B9D;fontColor=default;entryPerimeter=0;exitPerimeter=0;" parent="1" source="L6swmxHSuRBG7cFLtKDO-252" target="L6swmxHSuRBG7cFLtKDO-250" edge="1">
          <mxGeometry width="50" height="50" relative="1" as="geometry">
            <mxPoint x="1855" y="1170" as="sourcePoint" />
            <mxPoint x="1835" y="1100" as="targetPoint" />
          </mxGeometry>
        </mxCell>
        <mxCell id="kztWRyVH7MpdFEdJZsV--17" value="" style="endArrow=none;html=1;rounded=0;entryX=1;entryY=0.5;entryDx=0;entryDy=0;exitX=0;exitY=0.25;exitDx=0;exitDy=0;labelBackgroundColor=none;strokeColor=#457B9D;fontColor=default;" parent="1" source="L6swmxHSuRBG7cFLtKDO-132" target="L6swmxHSuRBG7cFLtKDO-252" edge="1">
          <mxGeometry width="50" height="50" relative="1" as="geometry">
            <mxPoint x="1980" y="1250" as="sourcePoint" />
            <mxPoint x="1855" y="1250" as="targetPoint" />
          </mxGeometry>
        </mxCell>
        <mxCell id="Gern_1-8WL82QVyAna8S-21" value="" style="endArrow=none;html=1;rounded=0;exitX=0.998;exitY=0.413;exitDx=0;exitDy=0;entryX=0.065;entryY=0.566;entryDx=0;entryDy=0;labelBackgroundColor=none;strokeColor=#457B9D;fontColor=default;entryPerimeter=0;exitPerimeter=0;" parent="1" source="L6swmxHSuRBG7cFLtKDO-52" target="L6swmxHSuRBG7cFLtKDO-78" edge="1">
          <mxGeometry width="50" height="50" relative="1" as="geometry">
            <mxPoint x="315" y="1100.5" as="sourcePoint" />
            <mxPoint x="385" y="1070.5" as="targetPoint" />
            <Array as="points" />
          </mxGeometry>
        </mxCell>
        <mxCell id="Gern_1-8WL82QVyAna8S-22" value="" style="endArrow=none;html=1;rounded=0;exitX=0.5;exitY=1;exitDx=0;exitDy=0;entryX=0.5;entryY=0;entryDx=0;entryDy=0;strokeColor=#457B9D;shadow=0;labelBackgroundColor=none;fontColor=default;" parent="1" source="L6swmxHSuRBG7cFLtKDO-93" target="L6swmxHSuRBG7cFLtKDO-95" edge="1">
          <mxGeometry width="50" height="50" relative="1" as="geometry">
            <mxPoint x="-202" y="1435.5" as="sourcePoint" />
            <mxPoint x="-313" y="1458.5" as="targetPoint" />
          </mxGeometry>
        </mxCell>
        <mxCell id="Gern_1-8WL82QVyAna8S-23" value="" style="endArrow=none;html=1;rounded=0;exitX=0.25;exitY=1;exitDx=0;exitDy=0;entryX=1;entryY=0;entryDx=0;entryDy=0;strokeColor=#457B9D;shadow=0;labelBackgroundColor=none;fontColor=default;" parent="1" source="L6swmxHSuRBG7cFLtKDO-93" target="L6swmxHSuRBG7cFLtKDO-94" edge="1">
          <mxGeometry width="50" height="50" relative="1" as="geometry">
            <mxPoint x="-142" y="1455.5" as="sourcePoint" />
            <mxPoint x="-142" y="1495.5" as="targetPoint" />
          </mxGeometry>
        </mxCell>
        <mxCell id="Gern_1-8WL82QVyAna8S-28" value="" style="endArrow=none;html=1;rounded=0;entryX=0.002;entryY=0.588;entryDx=0;entryDy=0;exitX=0.93;exitY=0.576;exitDx=0;exitDy=0;labelBackgroundColor=none;strokeColor=#457B9D;fontColor=default;entryPerimeter=0;exitPerimeter=0;" parent="1" source="L6swmxHSuRBG7cFLtKDO-257" target="L6swmxHSuRBG7cFLtKDO-250" edge="1">
          <mxGeometry width="50" height="50" relative="1" as="geometry">
            <mxPoint x="1605" y="1095" as="sourcePoint" />
            <mxPoint x="1775" y="1070" as="targetPoint" />
          </mxGeometry>
        </mxCell>
      </root>
    </mxGraphModel>
  </diagram>
</mxfile>
